<svg width="320" height="71" viewBox="0 0 320 71" fill="none" xmlns="http://www.w3.org/2000/svg">
<g clip-path="url(#clip0_334_34)">
<rect width="320" height="71" rx="8" fill="#343D44"/>
<rect x="5.1813" y="-32.1579" width="102.068" height="111.38" transform="rotate(15.2728 5.1813 -32.1579)" fill="#45DF79" stroke="#1C8D43" stroke-width="3"/>
<path d="M125.504 33.375V33.32C125.504 31.9633 125.257 30.7075 124.762 29.5525C124.267 28.3792 123.561 27.3617 122.644 26.5C121.746 25.6383 120.664 24.9692 119.399 24.4925C118.153 23.9975 116.778 23.75 115.274 23.75H107.767V43H115.274C116.778 43 118.153 42.7525 119.399 42.2575C120.664 41.7625 121.746 41.0842 122.644 40.2225C123.561 39.3608 124.267 38.3433 124.762 37.17C125.257 35.9967 125.504 34.7317 125.504 33.375ZM121.077 33.43C121.077 34.2917 120.93 35.0708 120.637 35.7675C120.362 36.4642 119.968 37.0692 119.454 37.5825C118.959 38.0958 118.354 38.49 117.639 38.765C116.924 39.04 116.136 39.1775 115.274 39.1775H112.002V27.5725H115.274C116.136 27.5725 116.924 27.7192 117.639 28.0125C118.354 28.2875 118.959 28.6817 119.454 29.195C119.968 29.7083 120.362 30.3225 120.637 31.0375C120.93 31.7525 121.077 32.5317 121.077 33.375V33.43ZM148.886 33.375V33.32C148.886 31.945 148.629 30.6617 148.116 29.47C147.621 28.26 146.915 27.215 145.998 26.335C145.1 25.4367 144.027 24.7308 142.781 24.2175C141.534 23.6858 140.168 23.42 138.683 23.42C137.198 23.42 135.823 23.6858 134.558 24.2175C133.311 24.7308 132.23 25.4458 131.313 26.3625C130.415 27.2608 129.709 28.315 129.196 29.525C128.682 30.7167 128.426 32 128.426 33.375V33.43C128.426 34.805 128.673 36.0975 129.168 37.3075C129.681 38.4992 130.387 39.5442 131.286 40.4425C132.202 41.3225 133.284 42.0283 134.531 42.56C135.777 43.0733 137.143 43.33 138.628 43.33C140.113 43.33 141.479 43.0733 142.726 42.56C143.991 42.0283 145.072 41.3133 145.971 40.415C146.887 39.4983 147.602 38.4442 148.116 37.2525C148.629 36.0425 148.886 34.75 148.886 33.375ZM144.458 33.43C144.458 34.255 144.311 35.0342 144.018 35.7675C143.743 36.4825 143.349 37.115 142.836 37.665C142.341 38.215 141.736 38.6458 141.021 38.9575C140.306 39.2692 139.526 39.425 138.683 39.425C137.821 39.425 137.033 39.2692 136.318 38.9575C135.621 38.6275 135.007 38.1875 134.476 37.6375C133.962 37.0875 133.559 36.4458 133.266 35.7125C132.991 34.9792 132.853 34.2 132.853 33.375V33.32C132.853 32.495 132.991 31.725 133.266 31.01C133.559 30.2767 133.953 29.635 134.448 29.085C134.961 28.535 135.566 28.1042 136.263 27.7925C136.978 27.4808 137.766 27.325 138.628 27.325C139.471 27.325 140.251 27.49 140.966 27.82C141.681 28.1317 142.295 28.5625 142.808 29.1125C143.34 29.6625 143.743 30.3042 144.018 31.0375C144.311 31.7708 144.458 32.55 144.458 33.375V33.43ZM180.362 23.75H175.935L171.947 36.785L167.63 23.695H164L159.682 36.785L155.695 23.75H151.157L157.73 43.1375H161.415L165.76 30.5425L170.105 43.1375H173.79L180.362 23.75ZM200.604 43V23.75H196.424V35.6025L187.404 23.75H183.499V43H187.679V30.7625L197.002 43H200.604ZM219.058 43V39.15H209.46V23.75H205.225V43H219.058ZM241.859 33.375V33.32C241.859 31.945 241.602 30.6617 241.089 29.47C240.594 28.26 239.888 27.215 238.972 26.335C238.073 25.4367 237.001 24.7308 235.754 24.2175C234.507 23.6858 233.142 23.42 231.657 23.42C230.172 23.42 228.797 23.6858 227.532 24.2175C226.285 24.7308 225.203 25.4458 224.287 26.3625C223.388 27.2608 222.682 28.315 222.169 29.525C221.656 30.7167 221.399 32 221.399 33.375V33.43C221.399 34.805 221.647 36.0975 222.142 37.3075C222.655 38.4992 223.361 39.5442 224.259 40.4425C225.176 41.3225 226.257 42.0283 227.504 42.56C228.751 43.0733 230.117 43.33 231.602 43.33C233.087 43.33 234.452 43.0733 235.699 42.56C236.964 42.0283 238.046 41.3133 238.944 40.415C239.861 39.4983 240.576 38.4442 241.089 37.2525C241.602 36.0425 241.859 34.75 241.859 33.375ZM237.432 33.43C237.432 34.255 237.285 35.0342 236.992 35.7675C236.717 36.4825 236.322 37.115 235.809 37.665C235.314 38.215 234.709 38.6458 233.994 38.9575C233.279 39.2692 232.5 39.425 231.657 39.425C230.795 39.425 230.007 39.2692 229.292 38.9575C228.595 38.6275 227.981 38.1875 227.449 37.6375C226.936 37.0875 226.532 36.4458 226.239 35.7125C225.964 34.9792 225.827 34.2 225.827 33.375V33.32C225.827 32.495 225.964 31.725 226.239 31.01C226.532 30.2767 226.927 29.635 227.422 29.085C227.935 28.535 228.54 28.1042 229.237 27.7925C229.952 27.4808 230.74 27.325 231.602 27.325C232.445 27.325 233.224 27.49 233.939 27.82C234.654 28.1317 235.268 28.5625 235.782 29.1125C236.313 29.6625 236.717 30.3042 236.992 31.0375C237.285 31.7708 237.432 32.55 237.432 33.375V33.43ZM264.371 43L256.121 23.6125H252.216L243.966 43H248.283L250.043 38.6825H258.183L259.943 43H264.371ZM256.671 34.9425H251.556L254.113 28.7L256.671 34.9425ZM285.079 33.375V33.32C285.079 31.9633 284.832 30.7075 284.337 29.5525C283.842 28.3792 283.136 27.3617 282.219 26.5C281.321 25.6383 280.239 24.9692 278.974 24.4925C277.728 23.9975 276.353 23.75 274.849 23.75H267.342V43H274.849C276.353 43 277.728 42.7525 278.974 42.2575C280.239 41.7625 281.321 41.0842 282.219 40.2225C283.136 39.3608 283.842 38.3433 284.337 37.17C284.832 35.9967 285.079 34.7317 285.079 33.375ZM280.652 33.43C280.652 34.2917 280.505 35.0708 280.212 35.7675C279.937 36.4642 279.543 37.0692 279.029 37.5825C278.534 38.0958 277.929 38.49 277.214 38.765C276.499 39.04 275.711 39.1775 274.849 39.1775H271.577V27.5725H274.849C275.711 27.5725 276.499 27.7192 277.214 28.0125C277.929 28.2875 278.534 28.6817 279.029 29.195C279.543 29.7083 279.937 30.3225 280.212 31.0375C280.505 31.7525 280.652 32.5317 280.652 33.375V33.43Z" fill="white"/>
<path d="M49.8357 29.7059H46.4286V19.1176C46.4286 17.9529 45.4643 17 44.2857 17H35.7143C34.5357 17 33.5714 17.9529 33.5714 19.1176V29.7059H30.1643C28.2571 29.7059 27.2929 31.9929 28.6429 33.3271L38.4786 43.0471C39.3143 43.8729 40.6643 43.8729 41.5 43.0471L51.3357 33.3271C52.6857 31.9929 51.7429 29.7059 49.8357 29.7059ZM25 50.8824C25 52.0471 25.9643 53 27.1429 53H52.8571C54.0357 53 55 52.0471 55 50.8824C55 49.7176 54.0357 48.7647 52.8571 48.7647H27.1429C25.9643 48.7647 25 49.7176 25 50.8824Z" fill="white"/>
</g>
<rect x="1.5" y="1.5" width="317" height="68" rx="6.5" stroke="#2C3236" stroke-width="3"/>
<defs>
<clipPath id="clip0_334_34">
<rect width="320" height="71" rx="8" fill="white"/>
</clipPath>
</defs>
</svg>
