<svg width="320" height="71" viewBox="0 0 320 71" fill="none" xmlns="http://www.w3.org/2000/svg">
<g clip-path="url(#clip0_341_134)">
<rect width="320" height="71" rx="8" fill="#343D44"/>
<rect x="5.1813" y="-32.1579" width="102.068" height="111.38" transform="rotate(15.2728 5.1813 -32.1579)" fill="#DF4E45" stroke="#8D2A1C" stroke-width="3"/>
<path d="M120.584 36.345V23.75H116.239V36.1525C116.239 37.2708 116.01 38.0867 115.552 38.6C115.093 39.095 114.461 39.3425 113.654 39.3425C112.976 39.3425 112.352 39.1775 111.784 38.8475C111.234 38.4992 110.684 38.0225 110.134 37.4175L107.467 40.3875C108.127 41.1758 108.961 41.8542 109.969 42.4225C110.996 42.9908 112.261 43.275 113.764 43.275C114.772 43.275 115.698 43.1375 116.542 42.8625C117.385 42.5692 118.1 42.1383 118.687 41.57C119.292 40.9833 119.759 40.2592 120.089 39.3975C120.419 38.5358 120.584 37.5183 120.584 36.345ZM144.522 33.375V33.32C144.522 31.945 144.265 30.6617 143.752 29.47C143.257 28.26 142.551 27.215 141.634 26.335C140.736 25.4367 139.663 24.7308 138.417 24.2175C137.17 23.6858 135.804 23.42 134.319 23.42C132.834 23.42 131.459 23.6858 130.194 24.2175C128.947 24.7308 127.866 25.4458 126.949 26.3625C126.051 27.2608 125.345 28.315 124.832 29.525C124.318 30.7167 124.062 32 124.062 33.375V33.43C124.062 34.805 124.309 36.0975 124.804 37.3075C125.317 38.4992 126.023 39.5442 126.922 40.4425C127.838 41.3225 128.92 42.0283 130.167 42.56C131.413 43.0733 132.779 43.33 134.264 43.33C135.749 43.33 137.115 43.0733 138.362 42.56C139.627 42.0283 140.708 41.3133 141.607 40.415C142.523 39.4983 143.238 38.4442 143.752 37.2525C144.265 36.0425 144.522 34.75 144.522 33.375ZM140.094 33.43C140.094 34.255 139.947 35.0342 139.654 35.7675C139.379 36.4825 138.985 37.115 138.472 37.665C137.977 38.215 137.372 38.6458 136.657 38.9575C135.942 39.2692 135.162 39.425 134.319 39.425C133.457 39.425 132.669 39.2692 131.954 38.9575C131.257 38.6275 130.643 38.1875 130.112 37.6375C129.598 37.0875 129.195 36.4458 128.902 35.7125C128.627 34.9792 128.489 34.2 128.489 33.375V33.32C128.489 32.495 128.627 31.725 128.902 31.01C129.195 30.2767 129.589 29.635 130.084 29.085C130.597 28.535 131.202 28.1042 131.899 27.7925C132.614 27.4808 133.402 27.325 134.264 27.325C135.107 27.325 135.887 27.49 136.602 27.82C137.317 28.1317 137.931 28.5625 138.444 29.1125C138.976 29.6625 139.379 30.3042 139.654 31.0375C139.947 31.7708 140.094 32.55 140.094 33.375V33.43ZM152.706 43V23.75H148.471V43H152.706ZM174.622 43V23.75H170.442V35.6025L161.422 23.75H157.517V43H161.697V30.7625L171.019 43H174.622ZM206.242 43L197.992 23.6125H194.087L185.837 43H190.155L191.915 38.6825H200.055L201.815 43H206.242ZM198.542 34.9425H193.427L195.985 28.7L198.542 34.9425ZM223.046 43V39.15H213.448V23.75H209.213V43H223.046ZM241.475 30.46V30.405C241.475 29.415 241.301 28.5167 240.952 27.71C240.622 26.885 240.136 26.1792 239.495 25.5925C238.871 25.0058 238.101 24.5567 237.185 24.245C236.286 23.915 235.26 23.75 234.105 23.75H226.24V43H230.475V37.225H233.692C234.774 37.225 235.782 37.0875 236.717 36.8125C237.671 36.5192 238.496 36.0883 239.192 35.52C239.907 34.9517 240.466 34.2458 240.87 33.4025C241.273 32.5592 241.475 31.5783 241.475 30.46ZM237.185 30.5425C237.185 31.3675 236.891 32.0642 236.305 32.6325C235.718 33.1825 234.893 33.4575 233.83 33.4575H230.475V27.5725H233.747C234.811 27.5725 235.645 27.82 236.25 28.315C236.873 28.81 237.185 29.5342 237.185 30.4875V30.5425ZM260.889 43V23.75H256.654V31.3675H248.844V23.75H244.609V43H248.844V35.2725H256.654V43H260.889ZM284.257 43L276.007 23.6125H272.102L263.852 43H268.17L269.93 38.6825H278.07L279.83 43H284.257ZM276.557 34.9425H271.442L274 28.7L276.557 34.9425Z" fill="white"/>
<path d="M36.43 25.9222C35.611 26.7456 35.611 28.0544 36.43 28.8778L40.42 32.8889H21.1C19.945 32.8889 19 33.8389 19 35C19 36.1611 19.945 37.1111 21.1 37.1111H40.42L36.43 41.1222C35.611 41.9456 35.611 43.2544 36.43 44.0778C37.249 44.9011 38.551 44.9011 39.37 44.0778L46.909 36.4989C47.728 35.6756 47.728 34.3456 46.909 33.5222L39.37 25.9222C38.551 25.0989 37.249 25.0989 36.43 25.9222ZM56.8 49.7778H42.1C40.945 49.7778 40 50.7278 40 51.8889C40 53.05 40.945 54 42.1 54H56.8C59.11 54 61 52.1 61 49.7778V20.2222C61 17.9 59.11 16 56.8 16H42.1C40.945 16 40 16.95 40 18.1111C40 19.2722 40.945 20.2222 42.1 20.2222H56.8V49.7778Z" fill="white"/>
</g>
<rect x="1.5" y="1.5" width="317" height="68" rx="6.5" stroke="#2C3236" stroke-width="3"/>
<defs>
<clipPath id="clip0_341_134">
<rect width="320" height="71" rx="8" fill="white"/>
</clipPath>
</defs>
</svg>
