<svg width="320" height="71" viewBox="0 0 320 71" fill="none" xmlns="http://www.w3.org/2000/svg">
<g clip-path="url(#clip0_342_138)">
<rect width="320" height="71" rx="8" fill="#343D44"/>
<rect x="5.1813" y="-32.1579" width="102.068" height="111.38" transform="rotate(15.2728 5.1813 -32.1579)" fill="#45BADF" stroke="#1C798D" stroke-width="3"/>
<path d="M131.541 36.345V23.75H127.196V36.1525C127.196 37.2708 126.967 38.0867 126.509 38.6C126.05 39.095 125.418 39.3425 124.611 39.3425C123.933 39.3425 123.309 39.1775 122.741 38.8475C122.191 38.4992 121.641 38.0225 121.091 37.4175L118.424 40.3875C119.084 41.1758 119.918 41.8542 120.926 42.4225C121.953 42.9908 123.218 43.275 124.721 43.275C125.729 43.275 126.655 43.1375 127.499 42.8625C128.342 42.5692 129.057 42.1383 129.644 41.57C130.249 40.9833 130.716 40.2592 131.046 39.3975C131.376 38.5358 131.541 37.5183 131.541 36.345ZM155.479 33.375V33.32C155.479 31.945 155.222 30.6617 154.709 29.47C154.214 28.26 153.508 27.215 152.591 26.335C151.693 25.4367 150.62 24.7308 149.374 24.2175C148.127 23.6858 146.761 23.42 145.276 23.42C143.791 23.42 142.416 23.6858 141.151 24.2175C139.904 24.7308 138.823 25.4458 137.906 26.3625C137.008 27.2608 136.302 28.315 135.789 29.525C135.275 30.7167 135.019 32 135.019 33.375V33.43C135.019 34.805 135.266 36.0975 135.761 37.3075C136.274 38.4992 136.98 39.5442 137.879 40.4425C138.795 41.3225 139.877 42.0283 141.124 42.56C142.37 43.0733 143.736 43.33 145.221 43.33C146.706 43.33 148.072 43.0733 149.319 42.56C150.584 42.0283 151.665 41.3133 152.564 40.415C153.48 39.4983 154.195 38.4442 154.709 37.2525C155.222 36.0425 155.479 34.75 155.479 33.375ZM151.051 33.43C151.051 34.255 150.904 35.0342 150.611 35.7675C150.336 36.4825 149.942 37.115 149.429 37.665C148.934 38.215 148.329 38.6458 147.614 38.9575C146.899 39.2692 146.119 39.425 145.276 39.425C144.414 39.425 143.626 39.2692 142.911 38.9575C142.214 38.6275 141.6 38.1875 141.069 37.6375C140.555 37.0875 140.152 36.4458 139.859 35.7125C139.584 34.9792 139.446 34.2 139.446 33.375V33.32C139.446 32.495 139.584 31.725 139.859 31.01C140.152 30.2767 140.546 29.635 141.041 29.085C141.554 28.535 142.159 28.1042 142.856 27.7925C143.571 27.4808 144.359 27.325 145.221 27.325C146.064 27.325 146.844 27.49 147.559 27.82C148.274 28.1317 148.888 28.5625 149.401 29.1125C149.933 29.6625 150.336 30.3042 150.611 31.0375C150.904 31.7708 151.051 32.55 151.051 33.375V33.43ZM163.663 43V23.75H159.428V43H163.663ZM185.579 43V23.75H181.399V35.6025L172.379 23.75H168.474V43H172.654V30.7625L181.976 43H185.579ZM214.807 37.72V37.665C214.807 36.3817 214.486 35.3825 213.844 34.6675C213.203 33.9342 212.323 33.3567 211.204 32.935C211.553 32.7517 211.873 32.5317 212.167 32.275C212.478 32.0183 212.744 31.725 212.964 31.395C213.203 31.0467 213.386 30.6617 213.514 30.24C213.661 29.8183 213.734 29.3325 213.734 28.7825V28.7275C213.734 27.2058 213.166 25.9958 212.029 25.0975C210.911 24.1992 209.362 23.75 207.382 23.75H198.444V43H207.602C208.683 43 209.664 42.89 210.544 42.67C211.443 42.45 212.203 42.12 212.827 41.68C213.468 41.24 213.954 40.69 214.284 40.03C214.633 39.37 214.807 38.6 214.807 37.72ZM209.527 29.4975C209.527 30.2125 209.252 30.735 208.702 31.065C208.152 31.3767 207.409 31.5325 206.474 31.5325H202.569V27.4625H206.749C207.648 27.4625 208.335 27.6367 208.812 27.985C209.288 28.315 209.527 28.8008 209.527 29.4425V29.4975ZM210.599 37.1975C210.599 37.9125 210.333 38.4442 209.802 38.7925C209.27 39.1225 208.537 39.2875 207.602 39.2875H202.569V35.0525H207.464C208.564 35.0525 209.362 35.245 209.857 35.63C210.352 35.9967 210.599 36.5008 210.599 37.1425V37.1975ZM232.948 43V39.2325H222.498V35.19H231.573V31.4225H222.498V27.5175H232.81V23.75H218.29V43H232.948ZM251.288 27.655V23.75H235.338V27.655H241.196V43H245.431V27.655H251.288ZM273.3 43L265.05 23.6125H261.145L252.895 43H257.213L258.973 38.6825H267.113L268.873 43H273.3ZM265.6 34.9425H260.485L263.043 28.7L265.6 34.9425Z" fill="white"/>
<path d="M36.43 25.9222C35.611 26.7456 35.611 28.0544 36.43 28.8778L40.42 32.8889H21.1C19.945 32.8889 19 33.8389 19 35C19 36.1611 19.945 37.1111 21.1 37.1111H40.42L36.43 41.1222C35.611 41.9456 35.611 43.2544 36.43 44.0778C37.249 44.9011 38.551 44.9011 39.37 44.0778L46.909 36.4989C47.728 35.6756 47.728 34.3456 46.909 33.5222L39.37 25.9222C38.551 25.0989 37.249 25.0989 36.43 25.9222ZM56.8 49.7778H42.1C40.945 49.7778 40 50.7278 40 51.8889C40 53.05 40.945 54 42.1 54H56.8C59.11 54 61 52.1 61 49.7778V20.2222C61 17.9 59.11 16 56.8 16H42.1C40.945 16 40 16.95 40 18.1111C40 19.2722 40.945 20.2222 42.1 20.2222H56.8V49.7778Z" fill="white"/>
</g>
<rect x="1.5" y="1.5" width="317" height="68" rx="6.5" stroke="#2C3236" stroke-width="3"/>
<defs>
<clipPath id="clip0_342_138">
<rect width="320" height="71" rx="8" fill="white"/>
</clipPath>
</defs>
</svg>
