<svg width="320" height="71" viewBox="0 0 320 71" fill="none" xmlns="http://www.w3.org/2000/svg">
<g clip-path="url(#clip0_341_124)">
<rect width="320" height="71" rx="8" fill="#343D44"/>
<rect x="5.1813" y="-32.1579" width="102.068" height="111.38" transform="rotate(15.2728 5.1813 -32.1579)" fill="#45DF79" stroke="#1C8D43" stroke-width="3"/>
<path d="M174.577 36.345V23.75H170.232V36.1525C170.232 37.2708 170.003 38.0867 169.544 38.6C169.086 39.095 168.454 39.3425 167.647 39.3425C166.969 39.3425 166.345 39.1775 165.777 38.8475C165.227 38.4992 164.677 38.0225 164.127 37.4175L161.459 40.3875C162.119 41.1758 162.954 41.8542 163.962 42.4225C164.989 42.9908 166.254 43.275 167.757 43.275C168.765 43.275 169.691 43.1375 170.534 42.8625C171.378 42.5692 172.093 42.1383 172.679 41.57C173.284 40.9833 173.752 40.2592 174.082 39.3975C174.412 38.5358 174.577 37.5183 174.577 36.345ZM198.514 33.375V33.32C198.514 31.945 198.258 30.6617 197.744 29.47C197.249 28.26 196.544 27.215 195.627 26.335C194.729 25.4367 193.656 24.7308 192.409 24.2175C191.163 23.6858 189.797 23.42 188.312 23.42C186.827 23.42 185.452 23.6858 184.187 24.2175C182.94 24.7308 181.859 25.4458 180.942 26.3625C180.044 27.2608 179.338 28.315 178.824 29.525C178.311 30.7167 178.054 32 178.054 33.375V33.43C178.054 34.805 178.302 36.0975 178.797 37.3075C179.31 38.4992 180.016 39.5442 180.914 40.4425C181.831 41.3225 182.913 42.0283 184.159 42.56C185.406 43.0733 186.772 43.33 188.257 43.33C189.742 43.33 191.108 43.0733 192.354 42.56C193.619 42.0283 194.701 41.3133 195.599 40.415C196.516 39.4983 197.231 38.4442 197.744 37.2525C198.258 36.0425 198.514 34.75 198.514 33.375ZM194.087 33.43C194.087 34.255 193.94 35.0342 193.647 35.7675C193.372 36.4825 192.978 37.115 192.464 37.665C191.969 38.215 191.364 38.6458 190.649 38.9575C189.934 39.2692 189.155 39.425 188.312 39.425C187.45 39.425 186.662 39.2692 185.947 38.9575C185.25 38.6275 184.636 38.1875 184.104 37.6375C183.591 37.0875 183.188 36.4458 182.894 35.7125C182.619 34.9792 182.482 34.2 182.482 33.375V33.32C182.482 32.495 182.619 31.725 182.894 31.01C183.188 30.2767 183.582 29.635 184.077 29.085C184.59 28.535 185.195 28.1042 185.892 27.7925C186.607 27.4808 187.395 27.325 188.257 27.325C189.1 27.325 189.879 27.49 190.594 27.82C191.309 28.1317 191.924 28.5625 192.437 29.1125C192.969 29.6625 193.372 30.3042 193.647 31.0375C193.94 31.7708 194.087 32.55 194.087 33.375V33.43ZM206.699 43V23.75H202.464V43H206.699ZM228.614 43V23.75H224.434V35.6025L215.414 23.75H211.509V43H215.689V30.7625L225.012 43H228.614Z" fill="white"/>
<path d="M36.43 25.9222C35.611 26.7456 35.611 28.0544 36.43 28.8778L40.42 32.8889H21.1C19.945 32.8889 19 33.8389 19 35C19 36.1611 19.945 37.1111 21.1 37.1111H40.42L36.43 41.1222C35.611 41.9456 35.611 43.2544 36.43 44.0778C37.249 44.9011 38.551 44.9011 39.37 44.0778L46.909 36.4989C47.728 35.6756 47.728 34.3456 46.909 33.5222L39.37 25.9222C38.551 25.0989 37.249 25.0989 36.43 25.9222ZM56.8 49.7778H42.1C40.945 49.7778 40 50.7278 40 51.8889C40 53.05 40.945 54 42.1 54H56.8C59.11 54 61 52.1 61 49.7778V20.2222C61 17.9 59.11 16 56.8 16H42.1C40.945 16 40 16.95 40 18.1111C40 19.2722 40.945 20.2222 42.1 20.2222H56.8V49.7778Z" fill="white"/>
</g>
<rect x="1.5" y="1.5" width="317" height="68" rx="6.5" stroke="#2C3236" stroke-width="3"/>
<defs>
<clipPath id="clip0_341_124">
<rect width="320" height="71" rx="8" fill="white"/>
</clipPath>
</defs>
</svg>
