<svg width="320" height="71" viewBox="0 0 320 71" fill="none" xmlns="http://www.w3.org/2000/svg">
<g clip-path="url(#clip0_332_3)">
<rect width="320" height="71" rx="8" fill="#343D44"/>
<rect x="5.1813" y="-32.1579" width="102.068" height="111.38" transform="rotate(15.2728 5.1813 -32.1579)" fill="#45DF79" stroke="#1C8D43" stroke-width="3"/>
<path d="M29 24.187V46.813C29 48.5383 30.9724 49.5866 32.4914 48.6475L50.9458 37.3345C52.3514 36.4828 52.3514 34.5172 50.9458 33.6436L32.4914 22.3525C30.9724 21.4134 29 22.4617 29 24.187Z" fill="white"/>
<path d="M133.546 30.46V30.405C133.546 29.415 133.372 28.5167 133.023 27.71C132.693 26.885 132.207 26.1792 131.566 25.5925C130.942 25.0058 130.172 24.5567 129.256 24.245C128.357 23.915 127.331 23.75 126.176 23.75H118.311V43H122.546V37.225H125.763C126.845 37.225 127.853 37.0875 128.788 36.8125C129.742 36.5192 130.567 36.0883 131.263 35.52C131.978 34.9517 132.537 34.2458 132.941 33.4025C133.344 32.5592 133.546 31.5783 133.546 30.46ZM129.256 30.5425C129.256 31.3675 128.962 32.0642 128.376 32.6325C127.789 33.1825 126.964 33.4575 125.901 33.4575H122.546V27.5725H125.818C126.882 27.5725 127.716 27.82 128.321 28.315C128.944 28.81 129.256 29.5342 129.256 30.4875V30.5425ZM150.512 43V39.15H140.915V23.75H136.68V43H150.512ZM172.461 43L164.211 23.6125H160.306L152.056 43H156.374L158.134 38.6825H166.274L168.034 43H172.461ZM164.761 34.9425H159.646L162.204 28.7L164.761 34.9425ZM192.482 23.75H187.67L182.995 31.4775L178.402 23.75H173.452L180.85 35.41V43H185.085V35.3275L192.482 23.75ZM220.467 43V23.75H216.287V35.6025L207.267 23.75H203.362V43H207.542V30.7625L216.865 43H220.467ZM244.696 33.375V33.32C244.696 31.945 244.439 30.6617 243.926 29.47C243.431 28.26 242.725 27.215 241.808 26.335C240.91 25.4367 239.837 24.7308 238.591 24.2175C237.344 23.6858 235.978 23.42 234.493 23.42C233.008 23.42 231.633 23.6858 230.368 24.2175C229.121 24.7308 228.04 25.4458 227.123 26.3625C226.225 27.2608 225.519 28.315 225.006 29.525C224.492 30.7167 224.236 32 224.236 33.375V33.43C224.236 34.805 224.483 36.0975 224.978 37.3075C225.491 38.4992 226.197 39.5442 227.096 40.4425C228.012 41.3225 229.094 42.0283 230.341 42.56C231.587 43.0733 232.953 43.33 234.438 43.33C235.923 43.33 237.289 43.0733 238.536 42.56C239.801 42.0283 240.882 41.3133 241.781 40.415C242.697 39.4983 243.412 38.4442 243.926 37.2525C244.439 36.0425 244.696 34.75 244.696 33.375ZM240.268 33.43C240.268 34.255 240.121 35.0342 239.828 35.7675C239.553 36.4825 239.159 37.115 238.646 37.665C238.151 38.215 237.546 38.6458 236.831 38.9575C236.116 39.2692 235.336 39.425 234.493 39.425C233.631 39.425 232.843 39.2692 232.128 38.9575C231.431 38.6275 230.817 38.1875 230.286 37.6375C229.772 37.0875 229.369 36.4458 229.076 35.7125C228.801 34.9792 228.663 34.2 228.663 33.375V33.32C228.663 32.495 228.801 31.725 229.076 31.01C229.369 30.2767 229.763 29.635 230.258 29.085C230.771 28.535 231.376 28.1042 232.073 27.7925C232.788 27.4808 233.576 27.325 234.438 27.325C235.281 27.325 236.061 27.49 236.776 27.82C237.491 28.1317 238.105 28.5625 238.618 29.1125C239.15 29.6625 239.553 30.3042 239.828 31.0375C240.121 31.7708 240.268 32.55 240.268 33.375V33.43ZM276.172 23.75H271.745L267.757 36.785L263.44 23.695H259.81L255.492 36.785L251.505 23.75H246.967L253.54 43.1375H257.225L261.57 30.5425L265.915 43.1375H269.6L276.172 23.75Z" fill="white"/>
</g>
<rect x="1.5" y="1.5" width="317" height="68" rx="6.5" stroke="#2C3236" stroke-width="3"/>
<defs>
<clipPath id="clip0_332_3">
<rect width="320" height="71" rx="8" fill="white"/>
</clipPath>
</defs>
</svg>
