<svg width="320" height="71" viewBox="0 0 320 71" fill="none" xmlns="http://www.w3.org/2000/svg">
<g clip-path="url(#clip0_342_156)">
<rect width="320" height="71" rx="8" fill="#343D44"/>
<rect x="5.1813" y="-32.1579" width="102.068" height="111.38" transform="rotate(15.2728 5.1813 -32.1579)" fill="#58B1F2" stroke="#3E89C0" stroke-width="3"/>
<path d="M129.06 37.72V37.665C129.06 36.3817 128.74 35.3825 128.098 34.6675C127.456 33.9342 126.576 33.3567 125.458 32.935C125.806 32.7517 126.127 32.5317 126.42 32.275C126.732 32.0183 126.998 31.725 127.218 31.395C127.456 31.0467 127.64 30.6617 127.768 30.24C127.915 29.8183 127.988 29.3325 127.988 28.7825V28.7275C127.988 27.2058 127.42 25.9958 126.283 25.0975C125.165 24.1992 123.615 23.75 121.635 23.75H112.698V43H121.855C122.937 43 123.918 42.89 124.798 42.67C125.696 42.45 126.457 42.12 127.08 41.68C127.722 41.24 128.208 40.69 128.538 40.03C128.886 39.37 129.06 38.6 129.06 37.72ZM123.78 29.4975C123.78 30.2125 123.505 30.735 122.955 31.065C122.405 31.3767 121.663 31.5325 120.728 31.5325H116.823V27.4625H121.003C121.901 27.4625 122.589 27.6367 123.065 27.985C123.542 28.315 123.78 28.8008 123.78 29.4425V29.4975ZM124.853 37.1975C124.853 37.9125 124.587 38.4442 124.055 38.7925C123.524 39.1225 122.79 39.2875 121.855 39.2875H116.823V35.0525H121.718C122.818 35.0525 123.615 35.245 124.11 35.63C124.605 35.9967 124.853 36.5008 124.853 37.1425V37.1975ZM152.152 33.375V33.32C152.152 31.945 151.895 30.6617 151.382 29.47C150.887 28.26 150.181 27.215 149.264 26.335C148.366 25.4367 147.293 24.7308 146.047 24.2175C144.8 23.6858 143.434 23.42 141.949 23.42C140.464 23.42 139.089 23.6858 137.824 24.2175C136.577 24.7308 135.496 25.4458 134.579 26.3625C133.681 27.2608 132.975 28.315 132.462 29.525C131.948 30.7167 131.692 32 131.692 33.375V33.43C131.692 34.805 131.939 36.0975 132.434 37.3075C132.947 38.4992 133.653 39.5442 134.552 40.4425C135.468 41.3225 136.55 42.0283 137.797 42.56C139.043 43.0733 140.409 43.33 141.894 43.33C143.379 43.33 144.745 43.0733 145.992 42.56C147.257 42.0283 148.338 41.3133 149.237 40.415C150.153 39.4983 150.868 38.4442 151.382 37.2525C151.895 36.0425 152.152 34.75 152.152 33.375ZM147.724 33.43C147.724 34.255 147.577 35.0342 147.284 35.7675C147.009 36.4825 146.615 37.115 146.102 37.665C145.607 38.215 145.002 38.6458 144.287 38.9575C143.572 39.2692 142.792 39.425 141.949 39.425C141.087 39.425 140.299 39.2692 139.584 38.9575C138.887 38.6275 138.273 38.1875 137.742 37.6375C137.228 37.0875 136.825 36.4458 136.532 35.7125C136.257 34.9792 136.119 34.2 136.119 33.375V33.32C136.119 32.495 136.257 31.725 136.532 31.01C136.825 30.2767 137.219 29.635 137.714 29.085C138.227 28.535 138.832 28.1042 139.529 27.7925C140.244 27.4808 141.032 27.325 141.894 27.325C142.737 27.325 143.517 27.49 144.232 27.82C144.947 28.1317 145.561 28.5625 146.074 29.1125C146.606 29.6625 147.009 30.3042 147.284 31.0375C147.577 31.7708 147.724 32.55 147.724 33.375V33.43ZM175.516 33.375V33.32C175.516 31.945 175.259 30.6617 174.746 29.47C174.251 28.26 173.545 27.215 172.628 26.335C171.73 25.4367 170.658 24.7308 169.411 24.2175C168.164 23.6858 166.798 23.42 165.313 23.42C163.828 23.42 162.453 23.6858 161.188 24.2175C159.942 24.7308 158.86 25.4458 157.943 26.3625C157.045 27.2608 156.339 28.315 155.826 29.525C155.313 30.7167 155.056 32 155.056 33.375V33.43C155.056 34.805 155.303 36.0975 155.798 37.3075C156.312 38.4992 157.018 39.5442 157.916 40.4425C158.833 41.3225 159.914 42.0283 161.161 42.56C162.408 43.0733 163.773 43.33 165.258 43.33C166.743 43.33 168.109 43.0733 169.356 42.56C170.621 42.0283 171.703 41.3133 172.601 40.415C173.518 39.4983 174.233 38.4442 174.746 37.2525C175.259 36.0425 175.516 34.75 175.516 33.375ZM171.088 33.43C171.088 34.255 170.942 35.0342 170.648 35.7675C170.373 36.4825 169.979 37.115 169.466 37.665C168.971 38.215 168.366 38.6458 167.651 38.9575C166.936 39.2692 166.157 39.425 165.313 39.425C164.452 39.425 163.663 39.2692 162.948 38.9575C162.252 38.6275 161.638 38.1875 161.106 37.6375C160.593 37.0875 160.189 36.4458 159.896 35.7125C159.621 34.9792 159.483 34.2 159.483 33.375V33.32C159.483 32.495 159.621 31.725 159.896 31.01C160.189 30.2767 160.583 29.635 161.078 29.085C161.592 28.535 162.197 28.1042 162.893 27.7925C163.608 27.4808 164.397 27.325 165.258 27.325C166.102 27.325 166.881 27.49 167.596 27.82C168.311 28.1317 168.925 28.5625 169.438 29.1125C169.97 29.6625 170.373 30.3042 170.648 31.0375C170.942 31.7708 171.088 32.55 171.088 33.375V33.43ZM196.79 43L188.595 31.9175L196.433 23.75H191.318L183.508 32.165V23.75H179.273V43H183.508V37.115L185.735 34.805L191.703 43H196.79ZM218.611 43V23.75H214.046L208.986 31.89L203.926 23.75H199.361V43H203.513V30.515L208.876 38.655H208.986L214.403 30.4325V43H218.611ZM241.99 43L233.74 23.6125H229.835L221.585 43H225.903L227.663 38.6825H235.803L237.563 43H241.99ZM234.29 34.9425H229.175L231.733 28.7L234.29 34.9425ZM261.599 43L256.896 36.125C258.124 35.6667 259.114 34.9517 259.866 33.98C260.636 32.99 261.021 31.7158 261.021 30.1575V30.1025C261.021 28.1042 260.379 26.5458 259.096 25.4275C257.831 24.3092 256.053 23.75 253.761 23.75H244.961V43H249.196V36.84H252.524L256.649 43H261.599ZM256.731 30.3775C256.731 31.2025 256.447 31.8625 255.879 32.3575C255.329 32.8525 254.531 33.1 253.486 33.1H249.196V27.5725H253.404C254.449 27.5725 255.264 27.8017 255.851 28.26C256.438 28.7183 256.731 29.4058 256.731 30.3225V30.3775ZM282.352 43L274.157 31.9175L281.994 23.75H276.879L269.069 32.165V23.75H264.834V43H269.069V37.115L271.297 34.805L277.264 43H282.352Z" fill="white"/>
<path d="M49.8571 16H29.1429C26.8643 16 25 17.9 25 20.2222V54L39.5 47.6667L54 54V20.2222C54 17.9 52.1357 16 49.8571 16Z" fill="white"/>
</g>
<rect x="1.5" y="1.5" width="317" height="68" rx="6.5" stroke="#2C3236" stroke-width="3"/>
<defs>
<clipPath id="clip0_342_156">
<rect width="320" height="71" rx="8" fill="white"/>
</clipPath>
</defs>
</svg>
