<svg width="320" height="71" viewBox="0 0 320 71" fill="none" xmlns="http://www.w3.org/2000/svg">
<g clip-path="url(#clip0_342_142)">
<rect width="320" height="71" rx="8" fill="#343D44"/>
<rect x="5.1813" y="-32.1579" width="102.068" height="111.38" transform="rotate(15.2728 5.1813 -32.1579)" fill="#E8BB47" stroke="#C59144" stroke-width="3"/>
<path d="M148.125 27.6V23.75H133.467V43H137.702V35.5475H146.887V31.6975H137.702V27.6H148.125ZM171.122 33.375V33.32C171.122 31.945 170.865 30.6617 170.352 29.47C169.857 28.26 169.151 27.215 168.234 26.335C167.336 25.4367 166.264 24.7308 165.017 24.2175C163.77 23.6858 162.404 23.42 160.919 23.42C159.434 23.42 158.059 23.6858 156.794 24.2175C155.548 24.7308 154.466 25.4458 153.549 26.3625C152.651 27.2608 151.945 28.315 151.432 29.525C150.919 30.7167 150.662 32 150.662 33.375V33.43C150.662 34.805 150.909 36.0975 151.404 37.3075C151.918 38.4992 152.624 39.5442 153.522 40.4425C154.439 41.3225 155.52 42.0283 156.767 42.56C158.014 43.0733 159.379 43.33 160.864 43.33C162.349 43.33 163.715 43.0733 164.962 42.56C166.227 42.0283 167.309 41.3133 168.207 40.415C169.124 39.4983 169.839 38.4442 170.352 37.2525C170.865 36.0425 171.122 34.75 171.122 33.375ZM166.694 33.43C166.694 34.255 166.548 35.0342 166.254 35.7675C165.979 36.4825 165.585 37.115 165.072 37.665C164.577 38.215 163.972 38.6458 163.257 38.9575C162.542 39.2692 161.763 39.425 160.919 39.425C160.058 39.425 159.269 39.2692 158.554 38.9575C157.858 38.6275 157.244 38.1875 156.712 37.6375C156.199 37.0875 155.795 36.4458 155.502 35.7125C155.227 34.9792 155.089 34.2 155.089 33.375V33.32C155.089 32.495 155.227 31.725 155.502 31.01C155.795 30.2767 156.189 29.635 156.684 29.085C157.198 28.535 157.803 28.1042 158.499 27.7925C159.214 27.4808 160.003 27.325 160.864 27.325C161.708 27.325 162.487 27.49 163.202 27.82C163.917 28.1317 164.531 28.5625 165.044 29.1125C165.576 29.6625 165.979 30.3042 166.254 31.0375C166.548 31.7708 166.694 32.55 166.694 33.375V33.43ZM188.711 43V39.15H179.114V23.75H174.879V43H188.711ZM205.737 43V39.15H196.14V23.75H191.905V43H205.737ZM228.539 33.375V33.32C228.539 31.945 228.282 30.6617 227.769 29.47C227.274 28.26 226.568 27.215 225.651 26.335C224.753 25.4367 223.681 24.7308 222.434 24.2175C221.187 23.6858 219.821 23.42 218.336 23.42C216.851 23.42 215.476 23.6858 214.211 24.2175C212.965 24.7308 211.883 25.4458 210.966 26.3625C210.068 27.2608 209.362 28.315 208.849 29.525C208.336 30.7167 208.079 32 208.079 33.375V33.43C208.079 34.805 208.326 36.0975 208.821 37.3075C209.335 38.4992 210.041 39.5442 210.939 40.4425C211.856 41.3225 212.937 42.0283 214.184 42.56C215.431 43.0733 216.796 43.33 218.281 43.33C219.766 43.33 221.132 43.0733 222.379 42.56C223.644 42.0283 224.726 41.3133 225.624 40.415C226.541 39.4983 227.256 38.4442 227.769 37.2525C228.282 36.0425 228.539 34.75 228.539 33.375ZM224.111 33.43C224.111 34.255 223.965 35.0342 223.671 35.7675C223.396 36.4825 223.002 37.115 222.489 37.665C221.994 38.215 221.389 38.6458 220.674 38.9575C219.959 39.2692 219.18 39.425 218.336 39.425C217.475 39.425 216.686 39.2692 215.971 38.9575C215.275 38.6275 214.661 38.1875 214.129 37.6375C213.616 37.0875 213.212 36.4458 212.919 35.7125C212.644 34.9792 212.506 34.2 212.506 33.375V33.32C212.506 32.495 212.644 31.725 212.919 31.01C213.212 30.2767 213.606 29.635 214.101 29.085C214.615 28.535 215.22 28.1042 215.916 27.7925C216.631 27.4808 217.42 27.325 218.281 27.325C219.125 27.325 219.904 27.49 220.619 27.82C221.334 28.1317 221.948 28.5625 222.461 29.1125C222.993 29.6625 223.396 30.3042 223.671 31.0375C223.965 31.7708 224.111 32.55 224.111 33.375V33.43ZM260.016 23.75H255.588L251.601 36.785L247.283 23.695H243.653L239.336 36.785L235.348 23.75H230.811L237.383 43.1375H241.068L245.413 30.5425L249.758 43.1375H253.443L260.016 23.75Z" fill="white"/>
<path d="M40 47.8239L49.6997 53.6554C51.476 54.7242 53.6497 53.1443 53.1823 51.1462L50.6112 40.1801L59.1891 32.7919C60.755 31.4444 59.9136 28.8887 57.8568 28.7261L46.5678 27.7735L42.1503 17.4114C41.3556 15.5295 38.6444 15.5295 37.8497 17.4114L33.4322 27.7503L22.1432 28.7028C20.0864 28.8655 19.245 31.4211 20.8109 32.7687L29.3888 40.1569L26.8177 51.123C26.3503 53.1211 28.524 54.7009 30.3003 53.6322L40 47.8239Z" fill="white"/>
</g>
<rect x="1.5" y="1.5" width="317" height="68" rx="6.5" stroke="#2C3236" stroke-width="3"/>
<defs>
<clipPath id="clip0_342_142">
<rect width="320" height="71" rx="8" fill="white"/>
</clipPath>
</defs>
</svg>
