<svg width="320" height="71" viewBox="0 0 320 71" fill="none" xmlns="http://www.w3.org/2000/svg">
<g clip-path="url(#clip0_336_44)">
<rect width="320" height="71" rx="8" fill="#343D44"/>
<rect x="5.1813" y="-32.1579" width="102.068" height="111.38" transform="rotate(15.2728 5.1813 -32.1579)" fill="#58B1F2" stroke="#3E89C0" stroke-width="3"/>
<path d="M180.255 43V39.15H170.657V23.75H166.422V43H180.255ZM187.876 43V23.75H183.641V43H187.876ZM210.204 43L202.009 31.9175L209.847 23.75H204.732L196.922 32.165V23.75H192.687V43H196.922V37.115L199.149 34.805L205.117 43H210.204ZM227.432 43V39.2325H216.982V35.19H226.057V31.4225H216.982V27.5175H227.295V23.75H212.775V43H227.432Z" fill="white"/>
<path d="M41.6141 19.7555L32.1915 29.1871C31.5622 29.817 31.205 30.6852 31.205 31.5876V48.5951C31.205 50.4678 32.7358 52 34.6067 52H49.9142C51.2748 52 52.4994 51.1828 53.0437 49.94L58.5884 36.9843C60.0171 33.6135 57.5509 29.8681 53.8941 29.8681H44.2844L45.9002 22.0708C46.0703 21.2196 45.8152 20.3513 45.2029 19.7385C44.1994 18.751 42.6006 18.751 41.6141 19.7555ZM24.4017 52C26.2726 52 27.8033 50.4678 27.8033 48.5951V34.9754C27.8033 33.1027 26.2726 31.5705 24.4017 31.5705C22.5308 31.5705 21 33.1027 21 34.9754V48.5951C21 50.4678 22.5308 52 24.4017 52Z" fill="white"/>
</g>
<rect x="1.5" y="1.5" width="317" height="68" rx="6.5" stroke="#2C3236" stroke-width="3"/>
<defs>
<clipPath id="clip0_336_44">
<rect width="320" height="71" rx="8" fill="white"/>
</clipPath>
</defs>
</svg>
