<svg width="320" height="71" viewBox="0 0 320 71" fill="none" xmlns="http://www.w3.org/2000/svg">
<g clip-path="url(#clip0_334_21)">
<rect width="320" height="71" rx="8" fill="#343D44"/>
<rect x="5.1813" y="-32.1579" width="102.068" height="111.38" transform="rotate(15.2728 5.1813 -32.1579)" fill="#F25858" stroke="#C03E3E" stroke-width="3"/>
<path d="M180.255 43V39.15H170.657V23.75H166.422V43H180.255ZM187.876 43V23.75H183.641V43H187.876ZM210.204 43L202.009 31.9175L209.847 23.75H204.732L196.922 32.165V23.75H192.687V43H196.922V37.115L199.149 34.805L205.117 43H210.204ZM227.432 43V39.2325H216.982V35.19H226.057V31.4225H216.982V27.5175H227.295V23.75H212.775V43H227.432Z" fill="white"/>
<path d="M42.2937 49.1224C41.0021 50.2954 39.0139 50.2954 37.7224 49.1054L37.5355 48.9354C28.6139 40.8603 22.7852 35.5732 23.0061 28.9772C23.108 26.0872 24.5865 23.3161 26.9825 21.6841C31.4688 18.6241 37.0087 20.0521 39.9995 23.5541C42.9904 20.0521 48.5303 18.6071 53.0165 21.6841C55.4126 23.3161 56.891 26.0872 56.993 28.9772C57.2309 35.5732 51.3852 40.8603 42.4636 48.9694L42.2937 49.1224Z" fill="white"/>
</g>
<rect x="1.5" y="1.5" width="317" height="68" rx="6.5" stroke="#2C3236" stroke-width="3"/>
<defs>
<clipPath id="clip0_334_21">
<rect width="320" height="71" rx="8" fill="white"/>
</clipPath>
</defs>
</svg>
