<svg width="320" height="71" viewBox="0 0 320 71" fill="none" xmlns="http://www.w3.org/2000/svg">
<g clip-path="url(#clip0_336_48)">
<rect width="320" height="71" rx="8" fill="#343D44"/>
<rect x="5.1813" y="-32.1579" width="102.068" height="111.38" transform="rotate(15.2728 5.1813 -32.1579)" fill="#58B1F2" stroke="#3E89C0" stroke-width="3"/>
<path d="M170.224 23.75H165.797L161.809 36.785L157.492 23.695H153.862L149.544 36.785L145.557 23.75H141.019L147.592 43.1375H151.277L155.622 30.5425L159.967 43.1375H163.652L170.224 23.75ZM192.116 43L183.866 23.6125H179.961L171.711 43H176.029L177.789 38.6825H185.929L187.689 43H192.116ZM184.416 34.9425H179.301L181.859 28.7L184.416 34.9425ZM209.662 27.655V23.75H193.712V27.655H199.57V43H203.805V27.655H209.662ZM229.832 39.8925L227.137 37.17C226.385 37.8667 225.624 38.4167 224.854 38.82C224.103 39.2233 223.177 39.425 222.077 39.425C221.252 39.425 220.491 39.2692 219.794 38.9575C219.116 38.6275 218.529 38.1875 218.034 37.6375C217.558 37.0875 217.182 36.4458 216.907 35.7125C216.632 34.9792 216.494 34.2 216.494 33.375V33.32C216.494 32.495 216.632 31.725 216.907 31.01C217.182 30.2767 217.567 29.635 218.062 29.085C218.557 28.535 219.144 28.1042 219.822 27.7925C220.519 27.4808 221.27 27.325 222.077 27.325C223.049 27.325 223.919 27.5175 224.689 27.9025C225.478 28.2875 226.248 28.8192 226.999 29.4975L229.694 26.39C229.254 25.95 228.778 25.5467 228.264 25.18C227.751 24.8133 227.192 24.5017 226.587 24.245C225.982 23.9883 225.304 23.7867 224.552 23.64C223.819 23.4933 223.003 23.42 222.104 23.42C220.619 23.42 219.263 23.6858 218.034 24.2175C216.806 24.7308 215.752 25.4458 214.872 26.3625C213.992 27.2608 213.304 28.315 212.809 29.525C212.314 30.7167 212.067 32 212.067 33.375V33.43C212.067 34.805 212.314 36.0975 212.809 37.3075C213.304 38.5175 213.992 39.5717 214.872 40.47C215.752 41.35 216.797 42.0467 218.007 42.56C219.217 43.0733 220.528 43.33 221.939 43.33C222.874 43.33 223.718 43.2475 224.469 43.0825C225.221 42.9358 225.909 42.7158 226.532 42.4225C227.174 42.1108 227.76 41.7442 228.292 41.3225C228.824 40.9008 229.337 40.4242 229.832 39.8925ZM249.502 43V23.75H245.267V31.3675H237.457V23.75H233.222V43H237.457V35.2725H245.267V43H249.502Z" fill="white"/>
<path d="M40 22C30.9091 22 23.1455 27.598 20 35.5C23.1455 43.402 30.9091 49 40 49C49.0909 49 56.8545 43.402 60 35.5C56.8545 27.598 49.0909 22 40 22ZM40 44.5C34.9818 44.5 30.9091 40.468 30.9091 35.5C30.9091 30.532 34.9818 26.5 40 26.5C45.0182 26.5 49.0909 30.532 49.0909 35.5C49.0909 40.468 45.0182 44.5 40 44.5ZM40 30.1C36.9818 30.1 34.5455 32.512 34.5455 35.5C34.5455 38.488 36.9818 40.9 40 40.9C43.0182 40.9 45.4545 38.488 45.4545 35.5C45.4545 32.512 43.0182 30.1 40 30.1Z" fill="white"/>
</g>
<rect x="1.5" y="1.5" width="317" height="68" rx="6.5" stroke="#2C3236" stroke-width="3"/>
<defs>
<clipPath id="clip0_336_48">
<rect width="320" height="71" rx="8" fill="white"/>
</clipPath>
</defs>
</svg>
