<svg width="320" height="71" viewBox="0 0 320 71" fill="none" xmlns="http://www.w3.org/2000/svg">
<g clip-path="url(#clip0_334_16)">
<rect width="320" height="71" rx="8" fill="#343D44"/>
<rect x="5.1813" y="-32.1579" width="102.068" height="111.38" transform="rotate(15.2728 5.1813 -32.1579)" fill="#5865F2" stroke="#3E49C0" stroke-width="3"/>
<path d="M57.3271 19.15C54.1403 17.692 50.7229 16.6178 47.1498 16.0026C47.0847 15.9907 47.0197 16.0204 46.9862 16.0797C46.5467 16.8591 46.0599 17.876 45.7189 18.6752C41.8758 18.1015 38.0525 18.1015 34.2882 18.6752C33.9472 17.8582 33.4427 16.8591 33.0012 16.0797C32.9677 16.0224 32.9027 15.9927 32.8376 16.0026C29.2665 16.6158 25.8491 17.69 22.6603 19.15C22.6327 19.1619 22.609 19.1817 22.5933 19.2074C16.1112 28.8632 14.3355 38.2818 15.2066 47.5836C15.2106 47.6291 15.2362 47.6726 15.2717 47.7003C19.5484 50.8318 23.6911 52.733 27.7568 53.9931C27.8219 54.0129 27.8908 53.9891 27.9323 53.9357C28.894 52.6262 29.7513 51.2453 30.4864 49.7932C30.5298 49.7082 30.4884 49.6073 30.3997 49.5737C29.0399 49.0593 27.745 48.4322 26.4994 47.7201C26.4009 47.6627 26.393 47.5222 26.4837 47.4549C26.7458 47.2591 27.008 47.0553 27.2582 46.8496C27.3035 46.812 27.3666 46.8041 27.4199 46.8278C35.6027 50.5529 44.4616 50.5529 52.5478 46.8278C52.6011 46.8021 52.6642 46.81 52.7114 46.8476C52.9618 47.0533 53.2239 47.2591 53.488 47.4549C53.5786 47.5222 53.5727 47.6627 53.4742 47.7201C52.2286 48.446 50.9337 49.0593 49.5719 49.5717C49.4832 49.6053 49.4438 49.7082 49.4872 49.7932C50.238 51.2433 51.0954 52.6241 52.0394 53.9337C52.0788 53.9891 52.1497 54.0129 52.2148 53.9931C56.3003 52.733 60.443 50.8318 64.7196 47.7003C64.7571 47.6726 64.7808 47.631 64.7847 47.5855C65.8273 36.8317 63.0385 27.4903 57.3921 19.2093C57.3783 19.1817 57.3547 19.1619 57.3271 19.15ZM31.7084 41.9197C29.2448 41.9197 27.2149 39.6646 27.2149 36.895C27.2149 34.1254 29.2054 31.8702 31.7084 31.8702C34.231 31.8702 36.2413 34.1452 36.2018 36.895C36.2018 39.6646 34.2113 41.9197 31.7084 41.9197ZM48.3224 41.9197C45.8589 41.9197 43.8289 39.6646 43.8289 36.895C43.8289 34.1254 45.8194 31.8702 48.3224 31.8702C50.8451 31.8702 52.8553 34.1452 52.8159 36.895C52.8159 39.6646 50.8451 41.9197 48.3224 41.9197Z" fill="white"/>
<path d="M149.352 33.375V33.32C149.352 31.9633 149.104 30.7075 148.609 29.5525C148.114 28.3792 147.409 27.3617 146.492 26.5C145.594 25.6383 144.512 24.9692 143.247 24.4925C142 23.9975 140.625 23.75 139.122 23.75H131.614V43H139.122C140.625 43 142 42.7525 143.247 42.2575C144.512 41.7625 145.594 41.0842 146.492 40.2225C147.409 39.3608 148.114 38.3433 148.609 37.17C149.104 35.9967 149.352 34.7317 149.352 33.375ZM144.924 33.43C144.924 34.2917 144.778 35.0708 144.484 35.7675C144.209 36.4642 143.815 37.0692 143.302 37.5825C142.807 38.0958 142.202 38.49 141.487 38.765C140.772 39.04 139.984 39.1775 139.122 39.1775H135.849V27.5725H139.122C139.984 27.5725 140.772 27.7192 141.487 28.0125C142.202 28.2875 142.807 28.6817 143.302 29.195C143.815 29.7083 144.209 30.3225 144.484 31.0375C144.778 31.7525 144.924 32.5317 144.924 33.375V33.43ZM157.553 43V23.75H153.318V43H157.553ZM176.279 37.3075V37.2525C176.279 36.4092 176.141 35.685 175.866 35.08C175.61 34.475 175.216 33.9525 174.684 33.5125C174.171 33.0542 173.529 32.6692 172.759 32.3575C172.007 32.0275 171.146 31.7342 170.174 31.4775C169.349 31.2575 168.661 31.065 168.111 30.9C167.58 30.735 167.158 30.5608 166.846 30.3775C166.535 30.1942 166.315 29.9925 166.186 29.7725C166.076 29.5342 166.021 29.2592 166.021 28.9475V28.8925C166.021 28.4158 166.223 28.0217 166.626 27.71C167.048 27.38 167.671 27.215 168.496 27.215C169.321 27.215 170.146 27.3892 170.971 27.7375C171.796 28.0675 172.64 28.5258 173.501 29.1125L175.701 25.9225C174.711 25.1342 173.621 24.5292 172.429 24.1075C171.256 23.6858 169.963 23.475 168.551 23.475C167.561 23.475 166.654 23.6125 165.829 23.8875C165.004 24.1625 164.289 24.5567 163.684 25.07C163.097 25.5833 162.639 26.1975 162.309 26.9125C161.979 27.6092 161.814 28.3975 161.814 29.2775V29.3325C161.814 30.2858 161.961 31.0833 162.254 31.725C162.566 32.3667 162.996 32.9075 163.546 33.3475C164.096 33.7692 164.766 34.1267 165.554 34.42C166.342 34.7133 167.222 34.9792 168.194 35.2175C169.001 35.4192 169.651 35.6117 170.146 35.795C170.66 35.9783 171.054 36.1617 171.329 36.345C171.622 36.5283 171.815 36.73 171.906 36.95C172.016 37.1517 172.071 37.39 172.071 37.665V37.72C172.071 38.2883 171.824 38.7375 171.329 39.0675C170.852 39.3792 170.174 39.535 169.294 39.535C168.194 39.535 167.176 39.3242 166.241 38.9025C165.325 38.4808 164.426 37.9125 163.546 37.1975L161.044 40.195C162.199 41.24 163.482 42.0192 164.894 42.5325C166.306 43.0275 167.745 43.275 169.211 43.275C170.256 43.275 171.21 43.1467 172.071 42.89C172.933 42.615 173.676 42.23 174.299 41.735C174.922 41.2217 175.408 40.5983 175.756 39.865C176.105 39.1133 176.279 38.2608 176.279 37.3075ZM196.867 39.8925L194.172 37.17C193.42 37.8667 192.659 38.4167 191.889 38.82C191.138 39.2233 190.212 39.425 189.112 39.425C188.287 39.425 187.526 39.2692 186.829 38.9575C186.151 38.6275 185.564 38.1875 185.069 37.6375C184.593 37.0875 184.217 36.4458 183.942 35.7125C183.667 34.9792 183.529 34.2 183.529 33.375V33.32C183.529 32.495 183.667 31.725 183.942 31.01C184.217 30.2767 184.602 29.635 185.097 29.085C185.592 28.535 186.178 28.1042 186.857 27.7925C187.553 27.4808 188.305 27.325 189.112 27.325C190.083 27.325 190.954 27.5175 191.724 27.9025C192.513 28.2875 193.283 28.8192 194.034 29.4975L196.729 26.39C196.289 25.95 195.813 25.5467 195.299 25.18C194.786 24.8133 194.227 24.5017 193.622 24.245C193.017 23.9883 192.338 23.7867 191.587 23.64C190.853 23.4933 190.038 23.42 189.139 23.42C187.654 23.42 186.298 23.6858 185.069 24.2175C183.841 24.7308 182.787 25.4458 181.907 26.3625C181.027 27.2608 180.339 28.315 179.844 29.525C179.349 30.7167 179.102 32 179.102 33.375V33.43C179.102 34.805 179.349 36.0975 179.844 37.3075C180.339 38.5175 181.027 39.5717 181.907 40.47C182.787 41.35 183.832 42.0467 185.042 42.56C186.252 43.0733 187.563 43.33 188.974 43.33C189.909 43.33 190.753 43.2475 191.504 43.0825C192.256 42.9358 192.943 42.7158 193.567 42.4225C194.208 42.1108 194.795 41.7442 195.327 41.3225C195.858 40.9008 196.372 40.4242 196.867 39.8925ZM219.865 33.375V33.32C219.865 31.945 219.608 30.6617 219.095 29.47C218.6 28.26 217.894 27.215 216.977 26.335C216.079 25.4367 215.006 24.7308 213.76 24.2175C212.513 23.6858 211.147 23.42 209.662 23.42C208.177 23.42 206.802 23.6858 205.537 24.2175C204.29 24.7308 203.209 25.4458 202.292 26.3625C201.394 27.2608 200.688 28.315 200.175 29.525C199.661 30.7167 199.405 32 199.405 33.375V33.43C199.405 34.805 199.652 36.0975 200.147 37.3075C200.66 38.4992 201.366 39.5442 202.265 40.4425C203.181 41.3225 204.263 42.0283 205.51 42.56C206.756 43.0733 208.122 43.33 209.607 43.33C211.092 43.33 212.458 43.0733 213.705 42.56C214.97 42.0283 216.051 41.3133 216.95 40.415C217.866 39.4983 218.581 38.4442 219.095 37.2525C219.608 36.0425 219.865 34.75 219.865 33.375ZM215.437 33.43C215.437 34.255 215.29 35.0342 214.997 35.7675C214.722 36.4825 214.328 37.115 213.815 37.665C213.32 38.215 212.715 38.6458 212 38.9575C211.285 39.2692 210.505 39.425 209.662 39.425C208.8 39.425 208.012 39.2692 207.297 38.9575C206.6 38.6275 205.986 38.1875 205.455 37.6375C204.941 37.0875 204.538 36.4458 204.245 35.7125C203.97 34.9792 203.832 34.2 203.832 33.375V33.32C203.832 32.495 203.97 31.725 204.245 31.01C204.538 30.2767 204.932 29.635 205.427 29.085C205.94 28.535 206.545 28.1042 207.242 27.7925C207.957 27.4808 208.745 27.325 209.607 27.325C210.45 27.325 211.23 27.49 211.945 27.82C212.66 28.1317 213.274 28.5625 213.787 29.1125C214.319 29.6625 214.722 30.3042 214.997 31.0375C215.29 31.7708 215.437 32.55 215.437 33.375V33.43ZM240.259 43L235.556 36.125C236.785 35.6667 237.775 34.9517 238.526 33.98C239.296 32.99 239.681 31.7158 239.681 30.1575V30.1025C239.681 28.1042 239.04 26.5458 237.756 25.4275C236.491 24.3092 234.713 23.75 232.421 23.75H223.621V43H227.856V36.84H231.184L235.309 43H240.259ZM235.391 30.3775C235.391 31.2025 235.107 31.8625 234.539 32.3575C233.989 32.8525 233.191 33.1 232.146 33.1H227.856V27.5725H232.064C233.109 27.5725 233.925 27.8017 234.511 28.26C235.098 28.7183 235.391 29.4058 235.391 30.3225V30.3775ZM261.232 33.375V33.32C261.232 31.9633 260.984 30.7075 260.489 29.5525C259.994 28.3792 259.288 27.3617 258.372 26.5C257.473 25.6383 256.392 24.9692 255.127 24.4925C253.88 23.9975 252.505 23.75 251.002 23.75H243.494V43H251.002C252.505 43 253.88 42.7525 255.127 42.2575C256.392 41.7625 257.473 41.0842 258.372 40.2225C259.288 39.3608 259.994 38.3433 260.489 37.17C260.984 35.9967 261.232 34.7317 261.232 33.375ZM256.804 33.43C256.804 34.2917 256.658 35.0708 256.364 35.7675C256.089 36.4642 255.695 37.0692 255.182 37.5825C254.687 38.0958 254.082 38.49 253.367 38.765C252.652 39.04 251.863 39.1775 251.002 39.1775H247.729V27.5725H251.002C251.863 27.5725 252.652 27.7192 253.367 28.0125C254.082 28.2875 254.687 28.6817 255.182 29.195C255.695 29.7083 256.089 30.3225 256.364 31.0375C256.658 31.7525 256.804 32.5317 256.804 33.375V33.43Z" fill="white"/>
</g>
<rect x="1.5" y="1.5" width="317" height="68" rx="6.5" stroke="#2C3236" stroke-width="3"/>
<defs>
<clipPath id="clip0_334_16">
<rect width="320" height="71" rx="8" fill="white"/>
</clipPath>
</defs>
</svg>
