<svg width="320" height="71" viewBox="0 0 320 71" fill="none" xmlns="http://www.w3.org/2000/svg">
<g clip-path="url(#clip0_338_74)">
<rect width="320" height="71" rx="8" fill="#343D44"/>
<rect x="5.1813" y="-32.1579" width="102.068" height="111.38" transform="rotate(15.2728 5.1813 -32.1579)" fill="#4267B2" stroke="#314F8D" stroke-width="3"/>
<path d="M130.387 27.6V23.75H115.729V43H119.964V35.5475H129.149V31.6975H119.964V27.6H130.387ZM152.531 43L144.281 23.6125H140.376L132.126 43H136.444L138.204 38.6825H146.344L148.104 43H152.531ZM144.831 34.9425H139.716L142.274 28.7L144.831 34.9425ZM172.415 39.8925L169.72 37.17C168.968 37.8667 168.207 38.4167 167.437 38.82C166.686 39.2233 165.76 39.425 164.66 39.425C163.835 39.425 163.074 39.2692 162.377 38.9575C161.699 38.6275 161.112 38.1875 160.617 37.6375C160.141 37.0875 159.765 36.4458 159.49 35.7125C159.215 34.9792 159.077 34.2 159.077 33.375V33.32C159.077 32.495 159.215 31.725 159.49 31.01C159.765 30.2767 160.15 29.635 160.645 29.085C161.14 28.535 161.727 28.1042 162.405 27.7925C163.102 27.4808 163.853 27.325 164.66 27.325C165.632 27.325 166.502 27.5175 167.272 27.9025C168.061 28.2875 168.831 28.8192 169.582 29.4975L172.277 26.39C171.837 25.95 171.361 25.5467 170.847 25.18C170.334 24.8133 169.775 24.5017 169.17 24.245C168.565 23.9883 167.887 23.7867 167.135 23.64C166.402 23.4933 165.586 23.42 164.687 23.42C163.202 23.42 161.846 23.6858 160.617 24.2175C159.389 24.7308 158.335 25.4458 157.455 26.3625C156.575 27.2608 155.887 28.315 155.392 29.525C154.897 30.7167 154.65 32 154.65 33.375V33.43C154.65 34.805 154.897 36.0975 155.392 37.3075C155.887 38.5175 156.575 39.5717 157.455 40.47C158.335 41.35 159.38 42.0467 160.59 42.56C161.8 43.0733 163.111 43.33 164.522 43.33C165.457 43.33 166.301 43.2475 167.052 43.0825C167.804 42.9358 168.492 42.7158 169.115 42.4225C169.757 42.1108 170.343 41.7442 170.875 41.3225C171.407 40.9008 171.92 40.4242 172.415 39.8925ZM190.463 43V39.2325H180.013V35.19H189.088V31.4225H180.013V27.5175H190.325V23.75H175.805V43H190.463ZM210.59 37.72V37.665C210.59 36.3817 210.27 35.3825 209.628 34.6675C208.986 33.9342 208.106 33.3567 206.988 32.935C207.336 32.7517 207.657 32.5317 207.95 32.275C208.262 32.0183 208.528 31.725 208.748 31.395C208.986 31.0467 209.17 30.6617 209.298 30.24C209.445 29.8183 209.518 29.3325 209.518 28.7825V28.7275C209.518 27.2058 208.95 25.9958 207.813 25.0975C206.695 24.1992 205.145 23.75 203.165 23.75H194.228V43H203.385C204.467 43 205.448 42.89 206.328 42.67C207.226 42.45 207.987 42.12 208.61 41.68C209.252 41.24 209.738 40.69 210.068 40.03C210.416 39.37 210.59 38.6 210.59 37.72ZM205.31 29.4975C205.31 30.2125 205.035 30.735 204.485 31.065C203.935 31.3767 203.193 31.5325 202.258 31.5325H198.353V27.4625H202.533C203.431 27.4625 204.119 27.6367 204.595 27.985C205.072 28.315 205.31 28.8008 205.31 29.4425V29.4975ZM206.383 37.1975C206.383 37.9125 206.117 38.4442 205.585 38.7925C205.054 39.1225 204.32 39.2875 203.385 39.2875H198.353V35.0525H203.248C204.348 35.0525 205.145 35.245 205.64 35.63C206.135 35.9967 206.383 36.5008 206.383 37.1425V37.1975ZM233.682 33.375V33.32C233.682 31.945 233.425 30.6617 232.912 29.47C232.417 28.26 231.711 27.215 230.794 26.335C229.896 25.4367 228.823 24.7308 227.577 24.2175C226.33 23.6858 224.964 23.42 223.479 23.42C221.994 23.42 220.619 23.6858 219.354 24.2175C218.107 24.7308 217.026 25.4458 216.109 26.3625C215.211 27.2608 214.505 28.315 213.992 29.525C213.478 30.7167 213.222 32 213.222 33.375V33.43C213.222 34.805 213.469 36.0975 213.964 37.3075C214.477 38.4992 215.183 39.5442 216.082 40.4425C216.998 41.3225 218.08 42.0283 219.327 42.56C220.573 43.0733 221.939 43.33 223.424 43.33C224.909 43.33 226.275 43.0733 227.522 42.56C228.787 42.0283 229.868 41.3133 230.767 40.415C231.683 39.4983 232.398 38.4442 232.912 37.2525C233.425 36.0425 233.682 34.75 233.682 33.375ZM229.254 33.43C229.254 34.255 229.107 35.0342 228.814 35.7675C228.539 36.4825 228.145 37.115 227.632 37.665C227.137 38.215 226.532 38.6458 225.817 38.9575C225.102 39.2692 224.322 39.425 223.479 39.425C222.617 39.425 221.829 39.2692 221.114 38.9575C220.417 38.6275 219.803 38.1875 219.272 37.6375C218.758 37.0875 218.355 36.4458 218.062 35.7125C217.787 34.9792 217.649 34.2 217.649 33.375V33.32C217.649 32.495 217.787 31.725 218.062 31.01C218.355 30.2767 218.749 29.635 219.244 29.085C219.757 28.535 220.362 28.1042 221.059 27.7925C221.774 27.4808 222.562 27.325 223.424 27.325C224.267 27.325 225.047 27.49 225.762 27.82C226.477 28.1317 227.091 28.5625 227.604 29.1125C228.136 29.6625 228.539 30.3042 228.814 31.0375C229.107 31.7708 229.254 32.55 229.254 33.375V33.43ZM257.046 33.375V33.32C257.046 31.945 256.789 30.6617 256.276 29.47C255.781 28.26 255.075 27.215 254.158 26.335C253.26 25.4367 252.188 24.7308 250.941 24.2175C249.694 23.6858 248.328 23.42 246.843 23.42C245.358 23.42 243.983 23.6858 242.718 24.2175C241.472 24.7308 240.39 25.4458 239.473 26.3625C238.575 27.2608 237.869 28.315 237.356 29.525C236.843 30.7167 236.586 32 236.586 33.375V33.43C236.586 34.805 236.833 36.0975 237.328 37.3075C237.842 38.4992 238.548 39.5442 239.446 40.4425C240.363 41.3225 241.444 42.0283 242.691 42.56C243.938 43.0733 245.303 43.33 246.788 43.33C248.273 43.33 249.639 43.0733 250.886 42.56C252.151 42.0283 253.233 41.3133 254.131 40.415C255.048 39.4983 255.763 38.4442 256.276 37.2525C256.789 36.0425 257.046 34.75 257.046 33.375ZM252.618 33.43C252.618 34.255 252.472 35.0342 252.178 35.7675C251.903 36.4825 251.509 37.115 250.996 37.665C250.501 38.215 249.896 38.6458 249.181 38.9575C248.466 39.2692 247.687 39.425 246.843 39.425C245.982 39.425 245.193 39.2692 244.478 38.9575C243.782 38.6275 243.168 38.1875 242.636 37.6375C242.123 37.0875 241.719 36.4458 241.426 35.7125C241.151 34.9792 241.013 34.2 241.013 33.375V33.32C241.013 32.495 241.151 31.725 241.426 31.01C241.719 30.2767 242.113 29.635 242.608 29.085C243.122 28.535 243.727 28.1042 244.423 27.7925C245.138 27.4808 245.927 27.325 246.788 27.325C247.632 27.325 248.411 27.49 249.126 27.82C249.841 28.1317 250.455 28.5625 250.968 29.1125C251.5 29.6625 251.903 30.3042 252.178 31.0375C252.472 31.7708 252.618 32.55 252.618 33.375V33.43ZM278.32 43L270.125 31.9175L277.963 23.75H272.848L265.038 32.165V23.75H260.803V43H265.038V37.115L267.265 34.805L273.233 43H278.32Z" fill="white"/>
<path d="M50.5556 16H29.4444C24.781 16 21 19.781 21 24.4444V45.5556C21 50.219 24.781 54 29.4444 54H41.311V39.3046H36.3647V33.5518H41.311V29.319C41.311 24.4128 44.3109 21.738 48.6893 21.738C50.165 21.7338 51.6386 21.8098 53.1058 21.9597V27.0897H50.0911C47.7056 27.0897 47.2411 28.217 47.2411 29.8806V33.5433H52.9411L52.2001 39.2961H47.2073V54H50.5556C55.219 54 59 50.219 59 45.5556V24.4444C59 19.781 55.219 16 50.5556 16Z" fill="white"/>
</g>
<rect x="1.5" y="1.5" width="317" height="68" rx="6.5" stroke="#2C3236" stroke-width="3"/>
<defs>
<clipPath id="clip0_338_74">
<rect width="320" height="71" rx="8" fill="white"/>
</clipPath>
</defs>
</svg>
