<svg width="320" height="71" viewBox="0 0 320 71" fill="none" xmlns="http://www.w3.org/2000/svg">
<g clip-path="url(#clip0_403_2)">
<rect width="320" height="71" rx="8" fill="#343D44"/>
<rect x="5.1813" y="-32.1579" width="102.068" height="111.38" transform="rotate(15.2728 5.1813 -32.1579)" fill="#1ABCFE" stroke="#169BD1" stroke-width="3"/>
<path d="M159.923 27.4492V47H155.895V27.4492H159.923ZM167.711 35.8013V38.9434H158.822V35.8013H167.711ZM168.651 27.4492V30.6047H158.822V27.4492H168.651ZM175.271 27.4492V47H171.256V27.4492H175.271ZM194.54 36.7815V44.5293C194.235 44.8963 193.765 45.2947 193.13 45.7244C192.494 46.1451 191.675 46.5076 190.672 46.812C189.67 47.1164 188.457 47.2686 187.033 47.2686C185.771 47.2686 184.621 47.0627 183.583 46.6509C182.544 46.2301 181.649 45.6169 180.897 44.8113C180.154 44.0056 179.581 43.0209 179.178 41.8572C178.775 40.6845 178.574 39.3462 178.574 37.8423V36.6204C178.574 35.1165 178.766 33.7782 179.151 32.6055C179.545 31.4328 180.105 30.4436 180.83 29.6379C181.555 28.8323 182.419 28.2191 183.421 27.7983C184.424 27.3776 185.538 27.1672 186.765 27.1672C188.466 27.1672 189.862 27.4447 190.954 27.9998C192.046 28.5458 192.879 29.3067 193.452 30.2825C194.034 31.2493 194.392 32.3593 194.526 33.6125H190.619C190.52 32.9501 190.332 32.3727 190.055 31.8804C189.777 31.388 189.379 31.0031 188.86 30.7256C188.349 30.4481 187.687 30.3093 186.872 30.3093C186.201 30.3093 185.601 30.4481 185.073 30.7256C184.554 30.9941 184.115 31.3925 183.757 31.9207C183.399 32.4488 183.126 33.1023 182.938 33.8811C182.75 34.6599 182.656 35.564 182.656 36.5935V37.8423C182.656 38.8628 182.754 39.7669 182.951 40.5547C183.148 41.3335 183.439 41.9915 183.824 42.5286C184.218 43.0567 184.701 43.4551 185.274 43.7236C185.847 43.9922 186.514 44.1265 187.275 44.1265C187.911 44.1265 188.439 44.0728 188.86 43.9653C189.289 43.8579 189.634 43.7281 189.894 43.5759C190.162 43.4148 190.368 43.2626 190.511 43.1194V39.655H186.832V36.7815H194.54ZM199.629 27.4492H203.039L208.061 41.8035L213.083 27.4492H216.494L209.431 47H206.692L199.629 27.4492ZM197.789 27.4492H201.186L201.804 41.4409V47H197.789V27.4492ZM214.936 27.4492H218.347V47H214.319V41.4409L214.936 27.4492ZM230.069 30.7927L224.752 47H220.469L227.733 27.4492H230.459L230.069 30.7927ZM234.487 47L229.156 30.7927L228.727 27.4492H231.479L238.784 47H234.487ZM234.245 39.7222V42.8777H223.919V39.7222H234.245Z" fill="white"/>
<path d="M32.895 54C29.6733 54 27.0617 51.411 27.0617 48.2174C27.0617 45.0237 29.6733 42.4348 32.895 42.4348H38.7283V48.2174C38.7283 51.411 36.1167 54 32.895 54ZM46.1667 27.5652H40.3333V16H46.1667C49.3883 16 52 18.589 52 21.7826C52 24.9763 49.3883 27.5652 46.1667 27.5652ZM32.8333 27.5652H38.6667V16H32.8333C29.6117 16 27 18.589 27 21.7826C27 24.9763 29.6117 27.5652 32.8333 27.5652ZM32.8333 40.7826H38.6667V29.2174H32.8333C29.6117 29.2174 27 31.8063 27 35C27 38.1937 29.6117 40.7826 32.8333 40.7826ZM45.3333 29.2174C44.0072 29.2174 42.7355 29.7396 41.7978 30.6691C40.8601 31.5986 40.3333 32.8594 40.3333 34.1739C40.3333 35.4885 40.8601 36.7492 41.7978 37.6787C42.7355 38.6082 44.0072 39.1304 45.3333 39.1304C46.6594 39.1304 47.9312 38.6082 48.8689 37.6787C49.8065 36.7492 50.3333 35.4885 50.3333 34.1739C50.3333 32.8594 49.8065 31.5986 48.8689 30.6691C47.9312 29.7396 46.6594 29.2174 45.3333 29.2174Z" fill="white"/>
</g>
<rect x="1.5" y="1.5" width="317" height="68" rx="6.5" stroke="#2C3236" stroke-width="3"/>
<defs>
<clipPath id="clip0_403_2">
<rect width="320" height="71" rx="8" fill="white"/>
</clipPath>
</defs>
</svg>
