<svg width="320" height="71" viewBox="0 0 320 71" fill="none" xmlns="http://www.w3.org/2000/svg">
<g clip-path="url(#clip0_403_2)">
<rect width="320" height="71" rx="8" fill="#343D44"/>
<rect x="5.1813" y="-32.1579" width="102.068" height="111.38" transform="rotate(15.2728 5.1813 -32.1579)" fill="#1ABCFE" stroke="#169BD1" stroke-width="3"/>
<path d="M166.242 27.6V23.75H151.585V43H155.82V35.5475H165.005V31.6975H155.82V27.6H166.242ZM174.059 43V23.75H169.824V43H174.059ZM196.36 40.2775V31.9175H188V35.575H192.262V38.325C191.181 39.095 189.851 39.48 188.275 39.48C187.413 39.48 186.625 39.3333 185.91 39.04C185.213 38.7283 184.599 38.2975 184.067 37.7475C183.554 37.1975 183.151 36.5558 182.857 35.8225C182.582 35.0708 182.445 34.255 182.445 33.375V33.32C182.445 32.495 182.582 31.725 182.857 31.01C183.151 30.2767 183.545 29.6442 184.04 29.1125C184.553 28.5625 185.14 28.1317 185.8 27.82C186.478 27.49 187.202 27.325 187.972 27.325C188.522 27.325 189.026 27.3708 189.485 27.4625C189.943 27.5542 190.365 27.6825 190.75 27.8475C191.153 28.0125 191.538 28.2142 191.905 28.4525C192.271 28.6908 192.638 28.9658 193.005 29.2775L195.672 26.06C195.177 25.6383 194.664 25.2625 194.132 24.9325C193.601 24.6025 193.032 24.3275 192.427 24.1075C191.822 23.8875 191.162 23.7225 190.447 23.6125C189.751 23.4842 188.971 23.42 188.11 23.42C186.643 23.42 185.296 23.6858 184.067 24.2175C182.839 24.7308 181.776 25.4458 180.877 26.3625C179.979 27.2608 179.273 28.315 178.76 29.525C178.265 30.7167 178.017 32 178.017 33.375V33.43C178.017 34.86 178.265 36.18 178.76 37.39C179.255 38.6 179.942 39.645 180.822 40.525C181.721 41.405 182.784 42.0925 184.012 42.5875C185.259 43.0825 186.634 43.33 188.137 43.33C189.897 43.33 191.456 43.0367 192.812 42.45C194.187 41.845 195.37 41.1208 196.36 40.2775ZM219.685 43V23.75H215.12L210.06 31.89L205 23.75H200.435V43H204.587V30.515L209.95 38.655H210.06L215.477 30.4325V43H219.685ZM243.064 43L234.814 23.6125H230.909L222.659 43H226.977L228.737 38.6825H236.877L238.637 43H243.064ZM235.364 34.9425H230.249L232.807 28.7L235.364 34.9425Z" fill="white"/>
<path d="M32.895 54C29.6733 54 27.0617 51.411 27.0617 48.2174C27.0617 45.0237 29.6733 42.4348 32.895 42.4348H38.7283V48.2174C38.7283 51.411 36.1167 54 32.895 54ZM46.1667 27.5652H40.3333V16H46.1667C49.3883 16 52 18.589 52 21.7826C52 24.9763 49.3883 27.5652 46.1667 27.5652ZM32.8333 27.5652H38.6667V16H32.8333C29.6117 16 27 18.589 27 21.7826C27 24.9763 29.6117 27.5652 32.8333 27.5652ZM32.8333 40.7826H38.6667V29.2174H32.8333C29.6117 29.2174 27 31.8063 27 35C27 38.1937 29.6117 40.7826 32.8333 40.7826ZM45.3333 29.2174C44.0073 29.2174 42.7355 29.7396 41.7978 30.6691C40.8601 31.5987 40.3333 32.8594 40.3333 34.1739C40.3333 35.4885 40.8601 36.7492 41.7978 37.6787C42.7355 38.6082 44.0073 39.1304 45.3333 39.1304C46.6594 39.1304 47.9312 38.6082 48.8689 37.6787C49.8065 36.7492 50.3333 35.4885 50.3333 34.1739C50.3333 32.8594 49.8065 31.5987 48.8689 30.6691C47.9312 29.7396 46.6594 29.2174 45.3333 29.2174Z" fill="white"/>
</g>
<rect x="1.5" y="1.5" width="317" height="68" rx="6.5" stroke="#2C3236" stroke-width="3"/>
<defs>
<clipPath id="clip0_403_2">
<rect width="320" height="71" rx="8" fill="white"/>
</clipPath>
</defs>
</svg>
