<svg width="320" height="71" viewBox="0 0 320 71" fill="none" xmlns="http://www.w3.org/2000/svg">
<g clip-path="url(#clip0_340_100)">
<rect width="320" height="71" rx="8" fill="#343D44"/>
<rect x="5.1813" y="-32.1579" width="102.068" height="111.38" transform="rotate(15.2728 5.1813 -32.1579)" fill="#333333" stroke="#2F2F2F" stroke-width="3"/>
<path d="M161.219 40.2775V31.9175H152.859V35.575H157.122V38.325C156.04 39.095 154.711 39.48 153.134 39.48C152.273 39.48 151.484 39.3333 150.769 39.04C150.073 38.7283 149.459 38.2975 148.927 37.7475C148.414 37.1975 148.01 36.5558 147.717 35.8225C147.442 35.0708 147.304 34.255 147.304 33.375V33.32C147.304 32.495 147.442 31.725 147.717 31.01C148.01 30.2767 148.404 29.6442 148.899 29.1125C149.413 28.5625 149.999 28.1317 150.659 27.82C151.338 27.49 152.062 27.325 152.832 27.325C153.382 27.325 153.886 27.3708 154.344 27.4625C154.803 27.5542 155.224 27.6825 155.609 27.8475C156.013 28.0125 156.398 28.2142 156.764 28.4525C157.131 28.6908 157.498 28.9658 157.864 29.2775L160.532 26.06C160.037 25.6383 159.524 25.2625 158.992 24.9325C158.46 24.6025 157.892 24.3275 157.287 24.1075C156.682 23.8875 156.022 23.7225 155.307 23.6125C154.61 23.4842 153.831 23.42 152.969 23.42C151.503 23.42 150.155 23.6858 148.927 24.2175C147.699 24.7308 146.635 25.4458 145.737 26.3625C144.839 27.2608 144.133 28.315 143.619 29.525C143.124 30.7167 142.877 32 142.877 33.375V33.43C142.877 34.86 143.124 36.18 143.619 37.39C144.114 38.6 144.802 39.645 145.682 40.525C146.58 41.405 147.644 42.0925 148.872 42.5875C150.119 43.0825 151.494 43.33 152.997 43.33C154.757 43.33 156.315 43.0367 157.672 42.45C159.047 41.845 160.229 41.1208 161.219 40.2775ZM169.722 43V23.75H165.487V43H169.722ZM189.108 27.655V23.75H173.158V27.655H179.015V43H183.25V27.655H189.108ZM208.645 43V23.75H204.41V31.3675H196.6V23.75H192.365V43H196.6V35.2725H204.41V43H208.645ZM229.731 34.6125V23.75H225.496V34.7775C225.496 36.3175 225.129 37.4725 224.396 38.2425C223.662 39.0125 222.645 39.3975 221.343 39.3975C220.042 39.3975 219.024 39.0033 218.291 38.215C217.557 37.4083 217.191 36.2167 217.191 34.64V23.75H212.956V34.75C212.956 37.5917 213.698 39.7275 215.183 41.1575C216.668 42.5875 218.703 43.3025 221.288 43.3025C222.572 43.3025 223.736 43.1283 224.781 42.78C225.826 42.4133 226.715 41.8725 227.448 41.1575C228.182 40.4242 228.741 39.5167 229.126 38.435C229.529 37.3533 229.731 36.0792 229.731 34.6125ZM250.407 37.72V37.665C250.407 36.3817 250.086 35.3825 249.444 34.6675C248.803 33.9342 247.923 33.3567 246.804 32.935C247.153 32.7517 247.474 32.5317 247.767 32.275C248.079 32.0183 248.344 31.725 248.564 31.395C248.803 31.0467 248.986 30.6617 249.114 30.24C249.261 29.8183 249.334 29.3325 249.334 28.7825V28.7275C249.334 27.2058 248.766 25.9958 247.629 25.0975C246.511 24.1992 244.962 23.75 242.982 23.75H234.044V43H243.202C244.284 43 245.264 42.89 246.144 42.67C247.043 42.45 247.804 42.12 248.427 41.68C249.069 41.24 249.554 40.69 249.884 40.03C250.233 39.37 250.407 38.6 250.407 37.72ZM245.127 29.4975C245.127 30.2125 244.852 30.735 244.302 31.065C243.752 31.3767 243.009 31.5325 242.074 31.5325H238.169V27.4625H242.349C243.248 27.4625 243.935 27.6367 244.412 27.985C244.889 28.315 245.127 28.8008 245.127 29.4425V29.4975ZM246.199 37.1975C246.199 37.9125 245.934 38.4442 245.402 38.7925C244.87 39.1225 244.137 39.2875 243.202 39.2875H238.169V35.0525H243.064C244.164 35.0525 244.962 35.245 245.457 35.63C245.952 35.9967 246.199 36.5008 246.199 37.1425V37.1975Z" fill="white"/>
<path d="M37.8672 16.1357C29.1094 17.1156 22.0652 24.3672 21.1132 33.1867C20.1613 42.3982 25.3017 50.6297 33.1075 53.7656C33.6787 53.9616 34.2499 53.5696 34.2499 52.7856V49.6498C34.2499 49.6498 33.4883 49.8458 32.5364 49.8458C29.871 49.8458 28.7287 47.4939 28.5383 46.122C28.3479 45.338 27.9671 44.7501 27.396 44.1621C26.8248 43.9661 26.6344 43.9661 26.6344 43.7701C26.6344 43.3781 27.2056 43.3781 27.396 43.3781C28.5383 43.3781 29.4902 44.7501 29.871 45.338C30.8229 46.9059 31.9652 47.2979 32.5364 47.2979C33.2979 47.2979 33.8691 47.1019 34.2499 46.9059C34.4402 45.534 35.0114 44.1621 36.1537 43.3781C31.7748 42.3982 28.5383 39.8503 28.5383 35.5386C28.5383 33.3827 29.4902 31.2268 30.8229 29.6589C30.6325 29.2669 30.4421 28.287 30.4421 26.9151C30.4421 26.1311 30.4421 25.1512 30.8229 24.3672C30.8229 23.9752 31.2037 23.7792 31.3941 23.7792H31.5845C32.5364 23.9752 34.4402 24.5632 36.1537 26.3271C37.296 25.9351 38.6287 25.7391 39.9614 25.7391C41.2941 25.7391 42.6268 25.9351 43.7691 26.3271C45.4826 24.5632 47.5769 23.9752 48.5288 23.7792H48.7192C49.0999 23.7792 49.2903 23.9752 49.4807 24.3672C49.4807 25.1512 49.4807 26.1311 49.4807 26.9151C49.4807 28.483 49.2903 29.2669 49.0999 29.6589C50.4326 31.2268 51.3846 33.1867 51.3846 35.5386C51.3846 39.8503 48.148 42.3982 43.7691 43.3781C44.9115 44.3581 45.673 46.122 45.673 47.8859V52.9816C45.673 53.5696 46.2442 54.1575 47.0057 53.9616C54.05 51.0217 59 43.9661 59 35.7346C59 23.9752 49.2903 14.7637 37.8672 16.1357Z" fill="white"/>
</g>
<rect x="1.5" y="1.5" width="317" height="68" rx="6.5" stroke="#2C3236" stroke-width="3"/>
<defs>
<clipPath id="clip0_340_100">
<rect width="320" height="71" rx="8" fill="white"/>
</clipPath>
</defs>
</svg>
