<svg width="320" height="71" viewBox="0 0 320 71" fill="none" xmlns="http://www.w3.org/2000/svg">
<g clip-path="url(#clip0_338_67)">
<rect width="320" height="71" rx="8" fill="#343D44"/>
<rect x="4.12939" y="-34" width="105.068" height="114.38" transform="rotate(15.2728 4.12939 -34)" fill="url(#paint0_angular_338_67)"/>
<rect x="5.1813" y="-32.1579" width="102.068" height="111.38" transform="rotate(15.2728 5.1813 -32.1579)" stroke="black" stroke-opacity="0.2" stroke-width="3"/>
<g filter="url(#filter0_b_338_67)">
<rect x="4.12939" y="-34" width="102.097" height="114.38" transform="rotate(15.2728 4.12939 -34)" fill="white" fill-opacity="0.1"/>
</g>
<path d="M115.162 43V23.75H110.927V43H115.162ZM137.078 43V23.75H132.898V35.6025L123.878 23.75H119.973V43H124.153V30.7625L133.475 43H137.078ZM155.614 37.3075V37.2525C155.614 36.4092 155.476 35.685 155.201 35.08C154.945 34.475 154.55 33.9525 154.019 33.5125C153.505 33.0542 152.864 32.6692 152.094 32.3575C151.342 32.0275 150.48 31.7342 149.509 31.4775C148.684 31.2575 147.996 31.065 147.446 30.9C146.915 30.735 146.493 30.5608 146.181 30.3775C145.87 30.1942 145.65 29.9925 145.521 29.7725C145.411 29.5342 145.356 29.2592 145.356 28.9475V28.8925C145.356 28.4158 145.558 28.0217 145.961 27.71C146.383 27.38 147.006 27.215 147.831 27.215C148.656 27.215 149.481 27.3892 150.306 27.7375C151.131 28.0675 151.975 28.5258 152.836 29.1125L155.036 25.9225C154.046 25.1342 152.955 24.5292 151.764 24.1075C150.59 23.6858 149.298 23.475 147.886 23.475C146.896 23.475 145.989 23.6125 145.164 23.8875C144.339 24.1625 143.624 24.5567 143.019 25.07C142.432 25.5833 141.974 26.1975 141.644 26.9125C141.314 27.6092 141.149 28.3975 141.149 29.2775V29.3325C141.149 30.2858 141.295 31.0833 141.589 31.725C141.9 32.3667 142.331 32.9075 142.881 33.3475C143.431 33.7692 144.1 34.1267 144.889 34.42C145.677 34.7133 146.557 34.9792 147.529 35.2175C148.335 35.4192 148.986 35.6117 149.481 35.795C149.995 35.9783 150.389 36.1617 150.664 36.345C150.957 36.5283 151.15 36.73 151.241 36.95C151.351 37.1517 151.406 37.39 151.406 37.665V37.72C151.406 38.2883 151.159 38.7375 150.664 39.0675C150.187 39.3792 149.509 39.535 148.629 39.535C147.529 39.535 146.511 39.3242 145.576 38.9025C144.66 38.4808 143.761 37.9125 142.881 37.1975L140.379 40.195C141.534 41.24 142.817 42.0192 144.229 42.5325C145.64 43.0275 147.08 43.275 148.546 43.275C149.591 43.275 150.545 43.1467 151.406 42.89C152.268 42.615 153.01 42.23 153.634 41.735C154.257 41.2217 154.743 40.5983 155.091 39.865C155.44 39.1133 155.614 38.2608 155.614 37.3075ZM173.864 27.655V23.75H157.914V27.655H163.772V43H168.007V27.655H173.864ZM195.876 43L187.626 23.6125H183.721L175.471 43H179.789L181.549 38.6825H189.689L191.449 43H195.876ZM188.176 34.9425H183.061L185.619 28.7L188.176 34.9425ZM216.337 40.2775V31.9175H207.977V35.575H212.24V38.325C211.158 39.095 209.829 39.48 208.252 39.48C207.39 39.48 206.602 39.3333 205.887 39.04C205.19 38.7283 204.576 38.2975 204.045 37.7475C203.531 37.1975 203.128 36.5558 202.835 35.8225C202.56 35.0708 202.422 34.255 202.422 33.375V33.32C202.422 32.495 202.56 31.725 202.835 31.01C203.128 30.2767 203.522 29.6442 204.017 29.1125C204.53 28.5625 205.117 28.1317 205.777 27.82C206.455 27.49 207.18 27.325 207.95 27.325C208.5 27.325 209.004 27.3708 209.462 27.4625C209.92 27.5542 210.342 27.6825 210.727 27.8475C211.13 28.0125 211.515 28.2142 211.882 28.4525C212.249 28.6908 212.615 28.9658 212.982 29.2775L215.65 26.06C215.155 25.6383 214.641 25.2625 214.11 24.9325C213.578 24.6025 213.01 24.3275 212.405 24.1075C211.8 23.8875 211.14 23.7225 210.425 23.6125C209.728 23.4842 208.949 23.42 208.087 23.42C206.62 23.42 205.273 23.6858 204.045 24.2175C202.816 24.7308 201.753 25.4458 200.855 26.3625C199.956 27.2608 199.25 28.315 198.737 29.525C198.242 30.7167 197.995 32 197.995 33.375V33.43C197.995 34.86 198.242 36.18 198.737 37.39C199.232 38.6 199.92 39.645 200.8 40.525C201.698 41.405 202.761 42.0925 203.99 42.5875C205.236 43.0825 206.611 43.33 208.115 43.33C209.875 43.33 211.433 43.0367 212.79 42.45C214.165 41.845 215.347 41.1208 216.337 40.2775ZM237.05 43L232.347 36.125C233.575 35.6667 234.565 34.9517 235.317 33.98C236.087 32.99 236.472 31.7158 236.472 30.1575V30.1025C236.472 28.1042 235.83 26.5458 234.547 25.4275C233.282 24.3092 231.504 23.75 229.212 23.75H220.412V43H224.647V36.84H227.975L232.1 43H237.05ZM232.182 30.3775C232.182 31.2025 231.898 31.8625 231.33 32.3575C230.78 32.8525 229.982 33.1 228.937 33.1H224.647V27.5725H228.855C229.9 27.5725 230.715 27.8017 231.302 28.26C231.889 28.7183 232.182 29.4058 232.182 30.3225V30.3775ZM259.04 43L250.79 23.6125H246.885L238.635 43H242.953L244.713 38.6825H252.853L254.613 43H259.04ZM251.34 34.9425H246.225L248.783 28.7L251.34 34.9425ZM281.261 43V23.75H276.696L271.636 31.89L266.576 23.75H262.011V43H266.164V30.515L271.526 38.655H271.636L277.054 30.4325V43H281.261Z" fill="white"/>
<path d="M32.4444 18C27.2292 18 23 22.2292 23 27.4444V42.5556C23 47.7708 27.2292 52 32.4444 52H47.5556C52.7708 52 57 47.7708 57 42.5556V27.4444C57 22.2292 52.7708 18 47.5556 18H32.4444ZM51.3333 21.7778C52.376 21.7778 53.2222 22.624 53.2222 23.6667C53.2222 24.7093 52.376 25.5556 51.3333 25.5556C50.2907 25.5556 49.4444 24.7093 49.4444 23.6667C49.4444 22.624 50.2907 21.7778 51.3333 21.7778ZM40 25.5556C45.2152 25.5556 49.4444 29.7848 49.4444 35C49.4444 40.2152 45.2152 44.4444 40 44.4444C34.7848 44.4444 30.5556 40.2152 30.5556 35C30.5556 29.7848 34.7848 25.5556 40 25.5556ZM40 29.3333C38.4971 29.3333 37.0558 29.9304 35.9931 30.9931C34.9304 32.0558 34.3333 33.4971 34.3333 35C34.3333 36.5029 34.9304 37.9442 35.9931 39.0069C37.0558 40.0696 38.4971 40.6667 40 40.6667C41.5029 40.6667 42.9442 40.0696 44.0069 39.0069C45.0696 37.9442 45.6667 36.5029 45.6667 35C45.6667 33.4971 45.0696 32.0558 44.0069 30.9931C42.9442 29.9304 41.5029 29.3333 40 29.3333Z" fill="white"/>
</g>
<rect x="1.5" y="1.5" width="317" height="68" rx="6.5" stroke="#2C3236" stroke-width="3"/>
<defs>
<filter id="filter0_b_338_67" x="-66" y="-74" width="208.621" height="217.234" filterUnits="userSpaceOnUse" color-interpolation-filters="sRGB">
<feFlood flood-opacity="0" result="BackgroundImageFix"/>
<feGaussianBlur in="BackgroundImage" stdDeviation="20"/>
<feComposite in2="SourceAlpha" operator="in" result="effect1_backgroundBlur_338_67"/>
<feBlend mode="normal" in="SourceGraphic" in2="effect1_backgroundBlur_338_67" result="shape"/>
</filter>
<radialGradient id="paint0_angular_338_67" cx="0" cy="0" r="1" gradientUnits="userSpaceOnUse" gradientTransform="translate(56.6636 23.1901) rotate(135.604) scale(57.5147 58.5791)">
<stop offset="0.0266059" stop-color="#FFDC80"/>
<stop offset="0.0952258" stop-color="#F77737"/>
<stop offset="0.11916" stop-color="#C13584"/>
<stop offset="0.176725" stop-color="#405DE6"/>
<stop offset="0.23283" stop-color="#5B51D8"/>
<stop offset="0.284116" stop-color="#833AB4"/>
<stop offset="0.358247" stop-color="#C13584"/>
<stop offset="0.466631" stop-color="#E1306C"/>
<stop offset="0.621296" stop-color="#FD1D1D"/>
<stop offset="0.736357" stop-color="#F56040"/>
<stop offset="0.897295" stop-color="#F77737"/>
<stop offset="1" stop-color="#FFDC80"/>
</radialGradient>
<clipPath id="clip0_338_67">
<rect width="320" height="71" rx="8" fill="white"/>
</clipPath>
</defs>
</svg>
