<svg width="320" height="71" viewBox="0 0 320 71" fill="none" xmlns="http://www.w3.org/2000/svg">
<g clip-path="url(#clip0_340_94)">
<rect width="320" height="71" rx="8" fill="#343D44"/>
<rect x="5.1813" y="-32.1579" width="102.068" height="111.38" transform="rotate(15.2728 5.1813 -32.1579)" fill="#E60023" stroke="#B9011D" stroke-width="3"/>
<path d="M133.892 30.46V30.405C133.892 29.415 133.718 28.5167 133.369 27.71C133.039 26.885 132.553 26.1792 131.912 25.5925C131.288 25.0058 130.518 24.5567 129.602 24.245C128.703 23.915 127.677 23.75 126.522 23.75H118.657V43H122.892V37.225H126.109C127.191 37.225 128.199 37.0875 129.134 36.8125C130.088 36.5192 130.913 36.0883 131.609 35.52C132.324 34.9517 132.883 34.2458 133.287 33.4025C133.69 32.5592 133.892 31.5783 133.892 30.46ZM129.602 30.5425C129.602 31.3675 129.308 32.0642 128.722 32.6325C128.135 33.1825 127.31 33.4575 126.247 33.4575H122.892V27.5725H126.164C127.228 27.5725 128.062 27.82 128.667 28.315C129.29 28.81 129.602 29.5342 129.602 30.4875V30.5425ZM141.453 43V23.75H137.218V43H141.453ZM163.369 43V23.75H159.189V35.6025L150.169 23.75H146.264V43H150.444V30.7625L159.767 43H163.369ZM182.565 27.655V23.75H166.615V27.655H172.473V43H176.708V27.655H182.565ZM200.48 43V39.2325H190.03V35.19H199.105V31.4225H190.03V27.5175H200.342V23.75H185.822V43H200.48ZM220.883 43L216.18 36.125C217.408 35.6667 218.398 34.9517 219.15 33.98C219.92 32.99 220.305 31.7158 220.305 30.1575V30.1025C220.305 28.1042 219.663 26.5458 218.38 25.4275C217.115 24.3092 215.337 23.75 213.045 23.75H204.245V43H208.48V36.84H211.808L215.933 43H220.883ZM216.015 30.3775C216.015 31.2025 215.731 31.8625 215.163 32.3575C214.613 32.8525 213.815 33.1 212.77 33.1H208.48V27.5725H212.688C213.733 27.5725 214.548 27.8017 215.135 28.26C215.722 28.7183 216.015 29.4058 216.015 30.3225V30.3775ZM238.776 43V39.2325H228.326V35.19H237.401V31.4225H228.326V27.5175H238.638V23.75H224.118V43H238.776ZM256.456 37.3075V37.2525C256.456 36.4092 256.318 35.685 256.043 35.08C255.787 34.475 255.393 33.9525 254.861 33.5125C254.348 33.0542 253.706 32.6692 252.936 32.3575C252.184 32.0275 251.323 31.7342 250.351 31.4775C249.526 31.2575 248.838 31.065 248.288 30.9C247.757 30.735 247.335 30.5608 247.023 30.3775C246.712 30.1942 246.492 29.9925 246.363 29.7725C246.253 29.5342 246.198 29.2592 246.198 28.9475V28.8925C246.198 28.4158 246.4 28.0217 246.803 27.71C247.225 27.38 247.848 27.215 248.673 27.215C249.498 27.215 250.323 27.3892 251.148 27.7375C251.973 28.0675 252.817 28.5258 253.678 29.1125L255.878 25.9225C254.888 25.1342 253.798 24.5292 252.606 24.1075C251.433 23.6858 250.14 23.475 248.728 23.475C247.738 23.475 246.831 23.6125 246.006 23.8875C245.181 24.1625 244.466 24.5567 243.861 25.07C243.274 25.5833 242.816 26.1975 242.486 26.9125C242.156 27.6092 241.991 28.3975 241.991 29.2775V29.3325C241.991 30.2858 242.138 31.0833 242.431 31.725C242.743 32.3667 243.173 32.9075 243.723 33.3475C244.273 33.7692 244.943 34.1267 245.731 34.42C246.519 34.7133 247.399 34.9792 248.371 35.2175C249.178 35.4192 249.828 35.6117 250.323 35.795C250.837 35.9783 251.231 36.1617 251.506 36.345C251.799 36.5283 251.992 36.73 252.083 36.95C252.193 37.1517 252.248 37.39 252.248 37.665V37.72C252.248 38.2883 252.001 38.7375 251.506 39.0675C251.029 39.3792 250.351 39.535 249.471 39.535C248.371 39.535 247.353 39.3242 246.418 38.9025C245.502 38.4808 244.603 37.9125 243.723 37.1975L241.221 40.195C242.376 41.24 243.659 42.0192 245.071 42.5325C246.483 43.0275 247.922 43.275 249.388 43.275C250.433 43.275 251.387 43.1467 252.248 42.89C253.11 42.615 253.853 42.23 254.476 41.735C255.099 41.2217 255.585 40.5983 255.933 39.865C256.282 39.1133 256.456 38.2608 256.456 37.3075ZM274.706 27.655V23.75H258.756V27.655H264.614V43H268.849V27.655H274.706Z" fill="white"/>
<path d="M40 16C29.5063 16 21 24.5063 21 35C21 43.0503 26.0084 49.9245 33.0764 52.6928C32.9111 51.1899 32.7591 48.8833 33.1429 47.2436C33.4887 45.7616 35.3697 37.7987 35.3697 37.7987C35.3697 37.7987 34.8016 36.6606 34.8016 34.9791C34.8016 32.3362 36.333 30.3659 38.2387 30.3659C39.8594 30.3659 40.6422 31.5838 40.6422 33.0411C40.6422 34.6713 39.6048 37.109 39.069 39.3662C38.6206 41.2586 40.0171 42.7995 41.8829 42.7995C45.2592 42.7995 47.8546 39.2389 47.8546 34.0994C47.8546 29.5508 44.5866 26.3702 39.9183 26.3702C34.5128 26.3702 31.3398 30.4248 31.3398 34.6162C31.3398 36.2483 31.9687 38.0001 32.7534 38.952C32.9092 39.1401 32.9301 39.3054 32.8845 39.4973C32.7401 40.0977 32.4209 41.3878 32.3582 41.6519C32.2765 41.9996 32.0827 42.0737 31.7236 41.9046C29.3505 40.7988 27.8666 37.3294 27.8666 34.544C27.8666 28.5514 32.2214 23.0452 40.4218 23.0452C47.0129 23.0452 52.1353 27.742 52.1353 34.0196C52.1353 40.5689 48.0066 45.8376 42.2762 45.8376C40.3515 45.8376 38.5408 44.8363 37.9214 43.6564C37.9214 43.6564 36.9676 47.2835 36.7377 48.1746C36.3083 49.8238 35.1512 51.8948 34.376 53.1564C36.1525 53.7017 38.0411 54 40 54C50.4918 54 59 45.4918 59 35C59 24.5082 50.4937 16 40 16Z" fill="white"/>
</g>
<rect x="1.5" y="1.5" width="317" height="68" rx="6.5" stroke="#2C3236" stroke-width="3"/>
<defs>
<clipPath id="clip0_340_94">
<rect width="320" height="71" rx="8" fill="white"/>
</clipPath>
</defs>
</svg>
