<svg width="320" height="71" viewBox="0 0 320 71" fill="none" xmlns="http://www.w3.org/2000/svg">
<g clip-path="url(#clip0_338_88)">
<rect width="320" height="71" rx="8" fill="#343D44"/>
<rect x="5.1813" y="-32.1579" width="102.068" height="111.38" transform="rotate(15.2728 5.1813 -32.1579)" fill="#2EB67D" stroke="#259163" stroke-width="3"/>
<path d="M164.358 37.3075V37.2525C164.358 36.4092 164.221 35.685 163.946 35.08C163.689 34.475 163.295 33.9525 162.763 33.5125C162.25 33.0542 161.608 32.6692 160.838 32.3575C160.087 32.0275 159.225 31.7342 158.253 31.4775C157.428 31.2575 156.741 31.065 156.191 30.9C155.659 30.735 155.237 30.5608 154.926 30.3775C154.614 30.1942 154.394 29.9925 154.266 29.7725C154.156 29.5342 154.101 29.2592 154.101 28.9475V28.8925C154.101 28.4158 154.302 28.0217 154.706 27.71C155.127 27.38 155.751 27.215 156.576 27.215C157.401 27.215 158.226 27.3892 159.051 27.7375C159.876 28.0675 160.719 28.5258 161.581 29.1125L163.781 25.9225C162.791 25.1342 161.7 24.5292 160.508 24.1075C159.335 23.6858 158.042 23.475 156.631 23.475C155.641 23.475 154.733 23.6125 153.908 23.8875C153.083 24.1625 152.368 24.5567 151.763 25.07C151.177 25.5833 150.718 26.1975 150.388 26.9125C150.058 27.6092 149.893 28.3975 149.893 29.2775V29.3325C149.893 30.2858 150.04 31.0833 150.333 31.725C150.645 32.3667 151.076 32.9075 151.626 33.3475C152.176 33.7692 152.845 34.1267 153.633 34.42C154.422 34.7133 155.302 34.9792 156.273 35.2175C157.08 35.4192 157.731 35.6117 158.226 35.795C158.739 35.9783 159.133 36.1617 159.408 36.345C159.702 36.5283 159.894 36.73 159.986 36.95C160.096 37.1517 160.151 37.39 160.151 37.665V37.72C160.151 38.2883 159.903 38.7375 159.408 39.0675C158.932 39.3792 158.253 39.535 157.373 39.535C156.273 39.535 155.256 39.3242 154.321 38.9025C153.404 38.4808 152.506 37.9125 151.626 37.1975L149.123 40.195C150.278 41.24 151.562 42.0192 152.973 42.5325C154.385 43.0275 155.824 43.275 157.291 43.275C158.336 43.275 159.289 43.1467 160.151 42.89C161.012 42.615 161.755 42.23 162.378 41.735C163.002 41.2217 163.487 40.5983 163.836 39.865C164.184 39.1133 164.358 38.2608 164.358 37.3075ZM181.866 43V39.15H172.269V23.75H168.034V43H181.866ZM203.815 43L195.565 23.6125H191.66L183.41 43H187.728L189.488 38.6825H197.628L199.388 43H203.815ZM196.115 34.9425H191L193.558 28.7L196.115 34.9425ZM223.699 39.8925L221.004 37.17C220.252 37.8667 219.491 38.4167 218.721 38.82C217.969 39.2233 217.044 39.425 215.944 39.425C215.119 39.425 214.358 39.2692 213.661 38.9575C212.983 38.6275 212.396 38.1875 211.901 37.6375C211.424 37.0875 211.049 36.4458 210.774 35.7125C210.499 34.9792 210.361 34.2 210.361 33.375V33.32C210.361 32.495 210.499 31.725 210.774 31.01C211.049 30.2767 211.434 29.635 211.929 29.085C212.424 28.535 213.01 28.1042 213.689 27.7925C214.385 27.4808 215.137 27.325 215.944 27.325C216.915 27.325 217.786 27.5175 218.556 27.9025C219.344 28.2875 220.114 28.8192 220.866 29.4975L223.561 26.39C223.121 25.95 222.644 25.5467 222.131 25.18C221.618 24.8133 221.059 24.5017 220.454 24.245C219.849 23.9883 219.17 23.7867 218.419 23.64C217.685 23.4933 216.869 23.42 215.971 23.42C214.486 23.42 213.129 23.6858 211.901 24.2175C210.673 24.7308 209.619 25.4458 208.739 26.3625C207.859 27.2608 207.171 28.315 206.676 29.525C206.181 30.7167 205.934 32 205.934 33.375V33.43C205.934 34.805 206.181 36.0975 206.676 37.3075C207.171 38.5175 207.859 39.5717 208.739 40.47C209.619 41.35 210.664 42.0467 211.874 42.56C213.084 43.0733 214.394 43.33 215.806 43.33C216.741 43.33 217.584 43.2475 218.336 43.0825C219.088 42.9358 219.775 42.7158 220.399 42.4225C221.04 42.1108 221.627 41.7442 222.159 41.3225C222.69 40.9008 223.204 40.4242 223.699 39.8925ZM244.606 43L236.411 31.9175L244.249 23.75H239.134L231.324 32.165V23.75H227.089V43H231.324V37.115L233.551 34.805L239.519 43H244.606Z" fill="white"/>
<path d="M35.0001 26.0002C33.7181 26.0002 26.2783 26.0002 25.0003 26.0002C22.7903 26.0002 21.0004 27.7901 21.0004 30.0001C21.0004 32.2101 22.7903 34 25.0003 34C26.2783 34 33.7181 34 35.0001 34C37.2101 34 39 32.2101 39 30.0001C39 27.7901 37.2101 26.0002 35.0001 26.0002ZM39 20.2143V23.0002C39 23.5522 38.558 24.0002 38.006 24.0002C37.0421 24.0002 35.6341 24.0002 35.0001 24.0002C32.7901 24.0002 31.0002 22.2103 31.0002 20.0003C31.0002 17.5703 33.1661 15.6484 35.6721 16.0544C37.638 16.3744 39 18.2223 39 20.2143ZM31.0002 39.9999C31.0002 41.2819 31.0002 48.7217 31.0002 49.9997C31.0002 52.2097 32.7901 53.9996 35.0001 53.9996C37.2101 53.9996 39 52.2097 39 49.9997C39 48.7217 39 41.2819 39 39.9999C39 37.7899 37.2101 36 35.0001 36C32.7901 36 31.0002 37.7899 31.0002 39.9999ZM25.2143 36H28.0002C28.5522 36 29.0002 36.442 29.0002 36.994C29.0002 37.9579 29.0002 39.3639 29.0002 39.9999C29.0002 42.2099 27.2103 43.9998 25.0003 43.9998C22.5703 43.9998 20.6484 41.8339 21.0544 39.3279C21.3744 37.36 23.2203 36 25.2143 36ZM44.9999 43.9998C46.2819 43.9998 53.7217 43.9998 54.9997 43.9998C57.2097 43.9998 58.9996 42.2099 58.9996 39.9999C58.9996 37.7899 57.2097 36 54.9997 36C53.7217 36 46.2819 36 44.9999 36C42.7899 36 41 37.7899 41 39.9999C41 42.2079 42.7899 43.9998 44.9999 43.9998ZM41 49.7857V46.9998C41 46.4478 41.442 45.9998 41.994 45.9998C42.9579 45.9998 44.3659 45.9998 44.9999 45.9998C47.2099 45.9998 48.9998 47.7897 48.9998 49.9997C48.9998 52.4297 46.8339 54.3516 44.3279 53.9456C42.36 53.6236 41 51.7777 41 49.7857ZM48.9998 30.0001C48.9998 28.7181 48.9998 21.2783 48.9998 20.0003C48.9998 17.7903 47.2099 16.0004 44.9999 16.0004C42.7899 16.0004 41 17.7903 41 20.0003C41 21.2783 41 28.7181 41 30.0001C41 32.2101 42.7899 34 44.9999 34C47.2079 34 48.9998 32.2081 48.9998 30.0001ZM54.7857 34H51.9998C51.4478 34 50.9998 33.558 50.9998 33.006C50.9998 32.0421 50.9998 30.6341 50.9998 30.0001C50.9998 27.7901 52.7897 26.0002 54.9997 26.0002C57.4297 26.0002 59.3516 28.1661 58.9456 30.6721C58.6236 32.638 56.7777 34 54.7857 34Z" fill="white"/>
</g>
<rect x="1.5" y="1.5" width="317" height="68" rx="6.5" stroke="#2C3236" stroke-width="3"/>
<defs>
<clipPath id="clip0_338_88">
<rect width="320" height="71" rx="8" fill="white"/>
</clipPath>
</defs>
</svg>
