<svg width="320" height="71" viewBox="0 0 320 71" fill="none" xmlns="http://www.w3.org/2000/svg">
<g clip-path="url(#clip0_341_116)">
<rect width="320" height="71" rx="8" fill="#343D44"/>
<rect x="5.1813" y="-32.1579" width="102.068" height="111.38" transform="rotate(15.2728 5.1813 -32.1579)" fill="#F26F23" stroke="#C5591B" stroke-width="3"/>
<path d="M119.241 37.3075V37.2525C119.241 36.4092 119.103 35.685 118.828 35.08C118.571 34.475 118.177 33.9525 117.646 33.5125C117.132 33.0542 116.491 32.6692 115.721 32.3575C114.969 32.0275 114.107 31.7342 113.136 31.4775C112.311 31.2575 111.623 31.065 111.073 30.9C110.541 30.735 110.12 30.5608 109.808 30.3775C109.496 30.1942 109.276 29.9925 109.148 29.7725C109.038 29.5342 108.983 29.2592 108.983 28.9475V28.8925C108.983 28.4158 109.185 28.0217 109.588 27.71C110.01 27.38 110.633 27.215 111.458 27.215C112.283 27.215 113.108 27.3892 113.933 27.7375C114.758 28.0675 115.601 28.5258 116.463 29.1125L118.663 25.9225C117.673 25.1342 116.582 24.5292 115.391 24.1075C114.217 23.6858 112.925 23.475 111.513 23.475C110.523 23.475 109.616 23.6125 108.791 23.8875C107.966 24.1625 107.251 24.5567 106.646 25.07C106.059 25.5833 105.601 26.1975 105.271 26.9125C104.941 27.6092 104.776 28.3975 104.776 29.2775V29.3325C104.776 30.2858 104.922 31.0833 105.216 31.725C105.527 32.3667 105.958 32.9075 106.508 33.3475C107.058 33.7692 107.727 34.1267 108.516 34.42C109.304 34.7133 110.184 34.9792 111.156 35.2175C111.962 35.4192 112.613 35.6117 113.108 35.795C113.621 35.9783 114.016 36.1617 114.291 36.345C114.584 36.5283 114.776 36.73 114.868 36.95C114.978 37.1517 115.033 37.39 115.033 37.665V37.72C115.033 38.2883 114.786 38.7375 114.291 39.0675C113.814 39.3792 113.136 39.535 112.256 39.535C111.156 39.535 110.138 39.3242 109.203 38.9025C108.286 38.4808 107.388 37.9125 106.508 37.1975L104.006 40.195C105.161 41.24 106.444 42.0192 107.856 42.5325C109.267 43.0275 110.706 43.275 112.173 43.275C113.218 43.275 114.171 43.1467 115.033 42.89C115.895 42.615 116.637 42.23 117.261 41.735C117.884 41.2217 118.37 40.5983 118.718 39.865C119.066 39.1133 119.241 38.2608 119.241 37.3075ZM142.523 33.375V33.32C142.523 31.945 142.267 30.6617 141.753 29.47C141.258 28.26 140.553 27.215 139.636 26.335C138.738 25.4367 137.665 24.7308 136.418 24.2175C135.172 23.6858 133.806 23.42 132.321 23.42C130.836 23.42 129.461 23.6858 128.196 24.2175C126.949 24.7308 125.868 25.4458 124.951 26.3625C124.053 27.2608 123.347 28.315 122.833 29.525C122.32 30.7167 122.063 32 122.063 33.375V33.43C122.063 34.805 122.311 36.0975 122.806 37.3075C123.319 38.4992 124.025 39.5442 124.923 40.4425C125.84 41.3225 126.922 42.0283 128.168 42.56C129.415 43.0733 130.781 43.33 132.266 43.33C133.751 43.33 135.117 43.0733 136.363 42.56C137.628 42.0283 138.71 41.3133 139.608 40.415C140.525 39.4983 141.24 38.4442 141.753 37.2525C142.267 36.0425 142.523 34.75 142.523 33.375ZM138.096 33.43C138.096 34.255 137.949 35.0342 137.656 35.7675C137.381 36.4825 136.987 37.115 136.473 37.665C135.978 38.215 135.373 38.6458 134.658 38.9575C133.943 39.2692 133.164 39.425 132.321 39.425C131.459 39.425 130.671 39.2692 129.956 38.9575C129.259 38.6275 128.645 38.1875 128.113 37.6375C127.6 37.0875 127.197 36.4458 126.903 35.7125C126.628 34.9792 126.491 34.2 126.491 33.375V33.32C126.491 32.495 126.628 31.725 126.903 31.01C127.197 30.2767 127.591 29.635 128.086 29.085C128.599 28.535 129.204 28.1042 129.901 27.7925C130.616 27.4808 131.404 27.325 132.266 27.325C133.109 27.325 133.888 27.49 134.603 27.82C135.318 28.1317 135.933 28.5625 136.446 29.1125C136.978 29.6625 137.381 30.3042 137.656 31.0375C137.949 31.7708 138.096 32.55 138.096 33.375V33.43ZM162.753 34.6125V23.75H158.518V34.7775C158.518 36.3175 158.151 37.4725 157.418 38.2425C156.684 39.0125 155.667 39.3975 154.365 39.3975C153.064 39.3975 152.046 39.0033 151.313 38.215C150.579 37.4083 150.213 36.2167 150.213 34.64V23.75H145.978V34.75C145.978 37.5917 146.72 39.7275 148.205 41.1575C149.69 42.5875 151.725 43.3025 154.31 43.3025C155.594 43.3025 156.758 43.1283 157.803 42.78C158.848 42.4133 159.737 41.8725 160.47 41.1575C161.204 40.4242 161.763 39.5167 162.148 38.435C162.551 37.3533 162.753 36.0792 162.753 34.6125ZM184.171 43V23.75H179.991V35.6025L170.971 23.75H167.066V43H171.246V30.7625L180.569 43H184.171ZM206.53 33.375V33.32C206.53 31.9633 206.282 30.7075 205.787 29.5525C205.292 28.3792 204.587 27.3617 203.67 26.5C202.772 25.6383 201.69 24.9692 200.425 24.4925C199.178 23.9975 197.803 23.75 196.3 23.75H188.792V43H196.3C197.803 43 199.178 42.7525 200.425 42.2575C201.69 41.7625 202.772 41.0842 203.67 40.2225C204.587 39.3608 205.292 38.3433 205.787 37.17C206.282 35.9967 206.53 34.7317 206.53 33.375ZM202.102 33.43C202.102 34.2917 201.956 35.0708 201.662 35.7675C201.387 36.4642 200.993 37.0692 200.48 37.5825C199.985 38.0958 199.38 38.49 198.665 38.765C197.95 39.04 197.162 39.1775 196.3 39.1775H193.027V27.5725H196.3C197.162 27.5725 197.95 27.7192 198.665 28.0125C199.38 28.2875 199.985 28.6817 200.48 29.195C200.993 29.7083 201.387 30.3225 201.662 31.0375C201.956 31.7525 202.102 32.5317 202.102 33.375V33.43ZM227.216 39.8925L224.521 37.17C223.769 37.8667 223.009 38.4167 222.239 38.82C221.487 39.2233 220.561 39.425 219.461 39.425C218.636 39.425 217.875 39.2692 217.179 38.9575C216.5 38.6275 215.914 38.1875 215.419 37.6375C214.942 37.0875 214.566 36.4458 214.291 35.7125C214.016 34.9792 213.879 34.2 213.879 33.375V33.32C213.879 32.495 214.016 31.725 214.291 31.01C214.566 30.2767 214.951 29.635 215.446 29.085C215.941 28.535 216.528 28.1042 217.206 27.7925C217.903 27.4808 218.654 27.325 219.461 27.325C220.433 27.325 221.304 27.5175 222.074 27.9025C222.862 28.2875 223.632 28.8192 224.384 29.4975L227.079 26.39C226.639 25.95 226.162 25.5467 225.649 25.18C225.135 24.8133 224.576 24.5017 223.971 24.245C223.366 23.9883 222.688 23.7867 221.936 23.64C221.203 23.4933 220.387 23.42 219.489 23.42C218.004 23.42 216.647 23.6858 215.419 24.2175C214.19 24.7308 213.136 25.4458 212.256 26.3625C211.376 27.2608 210.689 28.315 210.194 29.525C209.699 30.7167 209.451 32 209.451 33.375V33.43C209.451 34.805 209.699 36.0975 210.194 37.3075C210.689 38.5175 211.376 39.5717 212.256 40.47C213.136 41.35 214.181 42.0467 215.391 42.56C216.601 43.0733 217.912 43.33 219.324 43.33C220.259 43.33 221.102 43.2475 221.854 43.0825C222.605 42.9358 223.293 42.7158 223.916 42.4225C224.558 42.1108 225.144 41.7442 225.676 41.3225C226.208 40.9008 226.721 40.4242 227.216 39.8925ZM244.439 43V39.15H234.841V23.75H230.606V43H244.439ZM267.24 33.375V33.32C267.24 31.945 266.984 30.6617 266.47 29.47C265.975 28.26 265.269 27.215 264.353 26.335C263.454 25.4367 262.382 24.7308 261.135 24.2175C259.889 23.6858 258.523 23.42 257.038 23.42C255.553 23.42 254.178 23.6858 252.913 24.2175C251.666 24.7308 250.584 25.4458 249.668 26.3625C248.769 27.2608 248.064 28.315 247.55 29.525C247.037 30.7167 246.78 32 246.78 33.375V33.43C246.78 34.805 247.028 36.0975 247.523 37.3075C248.036 38.4992 248.742 39.5442 249.64 40.4425C250.557 41.3225 251.639 42.0283 252.885 42.56C254.132 43.0733 255.498 43.33 256.983 43.33C258.468 43.33 259.834 43.0733 261.08 42.56C262.345 42.0283 263.427 41.3133 264.325 40.415C265.242 39.4983 265.957 38.4442 266.47 37.2525C266.984 36.0425 267.24 34.75 267.24 33.375ZM262.813 33.43C262.813 34.255 262.666 35.0342 262.373 35.7675C262.098 36.4825 261.704 37.115 261.19 37.665C260.695 38.215 260.09 38.6458 259.375 38.9575C258.66 39.2692 257.881 39.425 257.038 39.425C256.176 39.425 255.388 39.2692 254.673 38.9575C253.976 38.6275 253.362 38.1875 252.83 37.6375C252.317 37.0875 251.914 36.4458 251.62 35.7125C251.345 34.9792 251.208 34.2 251.208 33.375V33.32C251.208 32.495 251.345 31.725 251.62 31.01C251.914 30.2767 252.308 29.635 252.803 29.085C253.316 28.535 253.921 28.1042 254.618 27.7925C255.333 27.4808 256.121 27.325 256.983 27.325C257.826 27.325 258.605 27.49 259.32 27.82C260.035 28.1317 260.649 28.5625 261.163 29.1125C261.694 29.6625 262.098 30.3042 262.373 31.0375C262.666 31.7708 262.813 32.55 262.813 33.375V33.43ZM287.47 34.6125V23.75H283.235V34.7775C283.235 36.3175 282.868 37.4725 282.135 38.2425C281.401 39.0125 280.384 39.3975 279.082 39.3975C277.78 39.3975 276.763 39.0033 276.03 38.215C275.296 37.4083 274.93 36.2167 274.93 34.64V23.75H270.695V34.75C270.695 37.5917 271.437 39.7275 272.922 41.1575C274.407 42.5875 276.442 43.3025 279.027 43.3025C280.31 43.3025 281.475 43.1283 282.52 42.78C283.565 42.4133 284.454 41.8725 285.187 41.1575C285.92 40.4242 286.48 39.5167 286.865 38.435C287.268 37.3533 287.47 36.0792 287.47 34.6125ZM309.521 33.375V33.32C309.521 31.9633 309.273 30.7075 308.778 29.5525C308.283 28.3792 307.577 27.3617 306.661 26.5C305.762 25.6383 304.681 24.9692 303.416 24.4925C302.169 23.9975 300.794 23.75 299.291 23.75H291.783V43H299.291C300.794 43 302.169 42.7525 303.416 42.2575C304.681 41.7625 305.762 41.0842 306.661 40.2225C307.577 39.3608 308.283 38.3433 308.778 37.17C309.273 35.9967 309.521 34.7317 309.521 33.375ZM305.093 33.43C305.093 34.2917 304.946 35.0708 304.653 35.7675C304.378 36.4642 303.984 37.0692 303.471 37.5825C302.976 38.0958 302.371 38.49 301.656 38.765C300.941 39.04 300.152 39.1775 299.291 39.1775H296.018V27.5725H299.291C300.152 27.5725 300.941 27.7192 301.656 28.0125C302.371 28.2875 302.976 28.6817 303.471 29.195C303.984 29.7083 304.378 30.3225 304.653 31.0375C304.946 31.7525 305.093 32.5317 305.093 33.375V33.43Z" fill="white"/>
<path d="M10.6681 33.492C10.545 33.492 10.4473 33.5882 10.4315 33.7255L10 37.0385L10.4315 40.2944C10.4473 40.4317 10.545 40.5273 10.6681 40.5273C10.7874 40.5273 10.8845 40.4323 10.9035 40.2957V40.2951C10.9035 40.2951 10.9035 40.2951 10.9035 40.2957L11.415 37.0385L10.9035 33.7248C10.8851 33.5882 10.7868 33.492 10.6681 33.492ZM13.0945 31.6818C13.0742 31.5394 12.9733 31.4413 12.849 31.4413C12.724 31.4413 12.6205 31.5427 12.6034 31.6818C12.6034 31.6831 12.0235 37.0385 12.0235 37.0385L12.6034 42.2765C12.6199 42.4169 12.7233 42.5183 12.849 42.5183C12.9727 42.5183 13.0736 42.4195 13.0939 42.2777L13.7538 37.0385L13.0945 31.6818ZM22.234 26.7409C21.9961 26.7409 21.7994 26.9378 21.7879 27.1879L21.326 37.043L21.7879 43.4118C21.8 43.6607 21.9961 43.857 22.234 43.857C22.4707 43.857 22.6667 43.66 22.6807 43.4105V43.4124L23.2029 37.043L22.6807 27.1879C22.6667 26.9378 22.4707 26.7409 22.234 26.7409ZM17.5037 30.1661C17.321 30.1661 17.1719 30.3137 17.1573 30.5106L16.637 37.0404L17.1573 43.3579C17.1712 43.5536 17.321 43.7011 17.5037 43.7011C17.6846 43.7011 17.8337 43.5536 17.8495 43.3579L18.4409 37.0404L17.8495 30.5093C17.8337 30.3137 17.6846 30.1661 17.5037 30.1661ZM27.0411 43.8563C27.3361 43.8563 27.576 43.6158 27.588 43.3079L28.041 37.0462L27.5886 23.9256C27.5766 23.6177 27.3367 23.3772 27.0417 23.3772C26.7441 23.3772 26.5036 23.6183 26.4941 23.9262C26.4941 23.9269 26.0925 37.0455 26.0925 37.0455L26.4941 43.3098C26.5036 43.6151 26.7441 43.8563 27.0411 43.8563ZM36.8823 43.8858C37.2884 43.8858 37.6234 43.5478 37.631 43.1321V43.1366V43.1321L37.947 37.05L37.631 21.8967C37.6241 21.4817 37.2884 21.143 36.8823 21.143C36.4756 21.143 36.1399 21.4811 36.1336 21.8974L35.8512 37.0449C35.8512 37.0545 36.1336 43.136 36.1336 43.136C36.1399 43.5478 36.4762 43.8858 36.8823 43.8858ZM31.9243 43.8621C32.2777 43.8621 32.5626 43.5754 32.5721 43.2097V43.2142L32.9566 37.0475L32.5715 23.8319C32.5619 23.4663 32.277 23.1802 31.9236 23.1802C31.5677 23.1802 31.2828 23.4663 31.2752 23.8319L30.9332 37.0481L31.2758 43.2136C31.2834 43.5754 31.5683 43.8621 31.9243 43.8621ZM19.8597 43.8044C20.0697 43.8044 20.2397 43.6344 20.2556 43.4105L20.8127 37.0404L20.2556 30.9808C20.2404 30.7569 20.0703 30.5882 19.8597 30.5882C19.6465 30.5882 19.4764 30.7582 19.4631 30.9833L18.9726 37.0404L19.4631 43.4099C19.4771 43.6344 19.6465 43.8044 19.8597 43.8044ZM15.1668 43.4554C15.3204 43.4554 15.4447 43.3329 15.4625 43.1636L16.0881 37.0391L15.4631 30.6838C15.4447 30.5138 15.3204 30.3913 15.1668 30.3913C15.0114 30.3913 14.887 30.5144 14.8711 30.6838C14.8711 30.6844 14.3204 37.0391 14.3204 37.0391L14.8711 43.1623C14.8864 43.3323 15.0107 43.4554 15.1668 43.4554ZM34.3938 23.6119C34.0099 23.6119 33.7022 23.9205 33.6945 24.3156L33.3824 37.0487L33.6945 43.1758C33.7022 43.5657 34.0093 43.8743 34.3938 43.8743C34.777 43.8743 35.0829 43.5664 35.0917 43.1713V43.1764L35.442 37.0494L35.0917 24.3143C35.0829 23.9205 34.777 23.6119 34.3938 23.6119ZM24.6286 43.8691C24.8939 43.8691 25.1128 43.6504 25.1255 43.3714L25.6128 37.0449L25.1255 24.9359C25.1121 24.6562 24.8939 24.4381 24.6286 24.4381C24.3609 24.4381 24.1426 24.6568 24.1312 24.9359C24.1312 24.9365 23.6997 37.0449 23.6997 37.0449L24.1318 43.374C24.1426 43.6504 24.3609 43.8691 24.6286 43.8691ZM30.0702 43.272V43.2688L30.489 37.0468L30.0702 23.4843C30.0601 23.1475 29.7974 22.8833 29.4731 22.8833C29.147 22.8833 28.8843 23.1469 28.8754 23.4843L28.5036 37.0462L28.8761 43.2713C28.8849 43.6049 29.1476 43.8685 29.4731 43.8685C29.798 43.8685 30.0594 43.6049 30.0702 43.2694V43.272ZM61.7437 29.229C60.7495 29.229 59.8009 29.4323 58.9367 29.7986C58.3592 23.1867 52.8745 18 46.1843 18C44.5472 18 42.9514 18.3258 41.5422 18.8768C40.9946 19.0911 40.8487 19.3117 40.8436 19.7396V43.0237C40.8493 43.4727 41.1938 43.8467 41.6272 43.891C41.6456 43.8929 61.6137 43.9031 61.7431 43.9031C65.7507 43.9031 69 40.6183 69 36.5664C69 32.5144 65.7513 29.229 61.7437 29.229ZM39.3601 19.7191C38.9242 19.7191 38.5663 20.0808 38.56 20.5253L38.2326 37.052L38.5606 43.05C38.5663 43.4881 38.9242 43.8493 39.3601 43.8493C39.7947 43.8493 40.1526 43.4881 40.1589 43.0436V43.0507L40.5149 37.052L40.1589 20.5241C40.1526 20.0808 39.7947 19.7191 39.3601 19.7191ZM15.8603 48.567C15.0018 48.3631 14.7696 48.254 14.7696 47.9102C14.7696 47.6677 14.9631 47.4169 15.5431 47.4169C16.0386 47.4169 16.4257 47.6203 16.7734 47.9801L17.5545 47.2142C17.0437 46.6748 16.4251 46.3541 15.5824 46.3541C14.5139 46.3541 13.6478 46.9641 13.6478 47.9577C13.6478 49.0366 14.3445 49.3573 15.3419 49.5914C16.3629 49.8255 16.5488 49.9827 16.5488 50.3348C16.5488 50.7492 16.2461 50.9294 15.6053 50.9294C15.0869 50.9294 14.5996 50.7498 14.2201 50.3028L13.439 51.0071C13.8489 51.6171 14.6389 52 15.5431 52C17.0215 52 17.6712 51.2963 17.6712 50.2566C17.6712 49.0674 16.7195 48.7704 15.8603 48.567ZM20.8438 46.3541C19.3667 46.3541 18.4929 47.5112 18.4929 49.177C18.4929 50.8428 19.3667 51.9994 20.8438 51.9994C22.3209 51.9994 23.1959 50.8428 23.1959 49.177C23.1959 47.5112 22.3209 46.3541 20.8438 46.3541ZM20.8438 50.9134C19.9701 50.9134 19.6059 50.1546 19.6059 49.1777C19.6059 48.2001 19.9701 47.4413 20.8438 47.4413C21.7188 47.4413 22.0817 48.2001 22.0817 49.1777C22.0817 50.1546 21.7188 50.9134 20.8438 50.9134ZM27.5671 49.5138C27.5671 50.3894 27.1407 50.9294 26.4529 50.9294C25.7644 50.9294 25.3469 50.374 25.3469 49.4984V46.4394H24.2632V49.5138C24.2632 51.1084 25.1458 52 26.4529 52C27.8298 52 28.6502 51.0847 28.6502 49.4984V46.4394H27.5671V49.5138ZM33.3221 48.755C33.3221 49.0603 33.3373 49.7479 33.3373 49.9513C33.2675 49.8101 33.0899 49.5369 32.9585 49.3329L31.0391 46.4387H30.003V51.914H31.0708V49.5048C31.0708 49.1995 31.0556 48.5119 31.0556 48.3085C31.1248 48.449 31.3037 48.7229 31.4344 48.9269L33.423 51.914H34.39V46.4387H33.3221V48.755ZM37.4762 46.4394H35.7821V51.9147H37.3982C38.7909 51.9147 40.1685 51.1007 40.1685 49.177C40.1685 47.1745 39.0232 46.4394 37.4762 46.4394ZM37.3982 50.8512H36.8652V47.5035H37.4375C38.5828 47.5035 39.0549 48.0584 39.0549 49.177C39.0549 50.1783 38.5359 50.8512 37.3982 50.8512ZM43.518 47.4407C44.0053 47.4407 44.315 47.66 44.5085 48.0353L45.5142 47.5664C45.1735 46.855 44.5542 46.3541 43.5333 46.3541C42.1189 46.3541 41.1278 47.5112 41.1278 49.177C41.1278 50.9051 42.079 51.9994 43.4946 51.9994C44.4774 51.9994 45.1272 51.5382 45.4983 50.764L44.5859 50.2162C44.2998 50.7017 44.013 50.9128 43.5257 50.9128C42.7135 50.9128 42.2414 50.1616 42.2414 49.177C42.2408 48.161 42.7065 47.4407 43.518 47.4407ZM47.5351 46.4394H46.452V51.9147H49.7071V50.8345H47.5351V46.4394ZM52.5605 46.3541C51.082 46.3541 50.2083 47.5112 50.2083 49.177C50.2083 50.8428 51.082 51.9994 52.5605 51.9994C54.0376 51.9994 54.912 50.8428 54.912 49.177C54.912 47.5112 54.0376 46.3541 52.5605 46.3541ZM52.5605 50.9134C51.6855 50.9134 51.3225 50.1546 51.3225 49.1777C51.3225 48.2001 51.6855 47.4413 52.5605 47.4413C53.4335 47.4413 53.7971 48.2001 53.7971 49.1777C53.7971 50.1546 53.4335 50.9134 52.5605 50.9134ZM59.2825 49.5138C59.2825 50.3894 58.858 50.9294 58.1695 50.9294C57.4798 50.9294 57.0629 50.374 57.0629 49.4984V46.4394H55.9798V49.5138C55.9798 51.1084 56.8618 52 58.1695 52C59.5464 52 60.3662 51.0847 60.3662 49.4984V46.4394H59.2825V49.5138ZM63.4138 46.4394H61.7203V51.9147H63.3364C64.7297 51.9147 66.106 51.1007 66.106 49.177C66.106 47.1745 64.9613 46.4394 63.4138 46.4394ZM63.3364 50.8512H62.8027V47.5035H63.3757C64.5197 47.5035 64.9918 48.0584 64.9918 49.177C64.9918 50.1783 64.4734 50.8512 63.3364 50.8512Z" fill="url(#paint0_linear_341_116)"/>
</g>
<rect x="1.5" y="1.5" width="317" height="68" rx="6.5" stroke="#2C3236" stroke-width="3"/>
<defs>
<linearGradient id="paint0_linear_341_116" x1="39.5001" y1="18" x2="39.5001" y2="52.0002" gradientUnits="userSpaceOnUse">
<stop stop-color="white"/>
<stop offset="1" stop-color="white"/>
</linearGradient>
<clipPath id="clip0_341_116">
<rect width="320" height="71" rx="8" fill="white"/>
</clipPath>
</defs>
</svg>
