<svg width="320" height="71" viewBox="0 0 320 71" fill="none" xmlns="http://www.w3.org/2000/svg">
<g clip-path="url(#clip0_341_107)">
<rect width="320" height="71" rx="8" fill="#343D44"/>
<rect x="5.1813" y="-32.1579" width="102.068" height="111.38" transform="rotate(15.2728 5.1813 -32.1579)" fill="#212121" stroke="#202020" stroke-width="3"/>
<path d="M159.164 27.655V23.75H143.214V27.655H149.071V43H153.306V27.655H159.164ZM166.848 43V23.75H162.613V43H166.848ZM189.177 43L180.982 31.9175L188.819 23.75H183.704L175.894 32.165V23.75H171.659V43H175.894V37.115L178.122 34.805L184.089 43H189.177ZM206.322 27.655V23.75H190.372V27.655H196.23V43H200.465V27.655H206.322ZM229.187 33.375V33.32C229.187 31.945 228.93 30.6617 228.417 29.47C227.922 28.26 227.216 27.215 226.299 26.335C225.401 25.4367 224.328 24.7308 223.082 24.2175C221.835 23.6858 220.469 23.42 218.984 23.42C217.499 23.42 216.124 23.6858 214.859 24.2175C213.612 24.7308 212.531 25.4458 211.614 26.3625C210.716 27.2608 210.01 28.315 209.497 29.525C208.983 30.7167 208.727 32 208.727 33.375V33.43C208.727 34.805 208.974 36.0975 209.469 37.3075C209.982 38.4992 210.688 39.5442 211.587 40.4425C212.503 41.3225 213.585 42.0283 214.832 42.56C216.078 43.0733 217.444 43.33 218.929 43.33C220.414 43.33 221.78 43.0733 223.027 42.56C224.292 42.0283 225.373 41.3133 226.272 40.415C227.188 39.4983 227.903 38.4442 228.417 37.2525C228.93 36.0425 229.187 34.75 229.187 33.375ZM224.759 33.43C224.759 34.255 224.612 35.0342 224.319 35.7675C224.044 36.4825 223.65 37.115 223.137 37.665C222.642 38.215 222.037 38.6458 221.322 38.9575C220.607 39.2692 219.827 39.425 218.984 39.425C218.122 39.425 217.334 39.2692 216.619 38.9575C215.922 38.6275 215.308 38.1875 214.777 37.6375C214.263 37.0875 213.86 36.4458 213.567 35.7125C213.292 34.9792 213.154 34.2 213.154 33.375V33.32C213.154 32.495 213.292 31.725 213.567 31.01C213.86 30.2767 214.254 29.635 214.749 29.085C215.262 28.535 215.867 28.1042 216.564 27.7925C217.279 27.4808 218.067 27.325 218.929 27.325C219.772 27.325 220.552 27.49 221.267 27.82C221.982 28.1317 222.596 28.5625 223.109 29.1125C223.641 29.6625 224.044 30.3042 224.319 31.0375C224.612 31.7708 224.759 32.55 224.759 33.375V33.43ZM250.461 43L242.266 31.9175L250.103 23.75H244.988L237.178 32.165V23.75H232.943V43H237.178V37.115L239.406 34.805L245.373 43H250.461Z" fill="white"/>
<path d="M28.3333 17C24.8606 17 22 19.8606 22 23.3333V48.6667C22 52.1394 24.8606 55 28.3333 55H53.6667C57.1394 55 60 52.1394 60 48.6667V23.3333C60 19.8606 57.1394 17 53.6667 17H28.3333ZM28.3333 21.2222H53.6667C54.8595 21.2222 55.7778 22.1405 55.7778 23.3333V48.6667C55.7778 49.8595 54.8595 50.7778 53.6667 50.7778H28.3333C27.1405 50.7778 26.2222 49.8595 26.2222 48.6667V23.3333C26.2222 22.1405 27.1405 21.2222 28.3333 21.2222ZM41 25.4444V40.2222C41 41.4151 40.0817 42.3333 38.8889 42.3333C37.696 42.3333 36.7778 41.4151 36.7778 40.2222C36.7778 39.0294 37.696 38.1111 38.8889 38.1111V33.8889C35.4162 33.8889 32.5556 36.7495 32.5556 40.2222C32.5556 43.6949 35.4162 46.5556 38.8889 46.5556C42.3616 46.5556 45.2222 43.6949 45.2222 40.2222V32.2684C46.523 33.1951 47.8804 33.8889 49.4444 33.8889V29.6667C49.3445 29.6667 47.8879 29.2042 46.8715 28.3184C45.8552 27.4325 45.2222 26.3205 45.2222 25.4444H41Z" fill="#FF0050"/>
<path d="M26.3333 16C22.8606 16 20 18.8606 20 22.3333V47.6667C20 51.1394 22.8606 54 26.3333 54H51.6667C55.1394 54 58 51.1394 58 47.6667V22.3333C58 18.8606 55.1394 16 51.6667 16H26.3333ZM26.3333 20.2222H51.6667C52.8595 20.2222 53.7778 21.1405 53.7778 22.3333V47.6667C53.7778 48.8595 52.8595 49.7778 51.6667 49.7778H26.3333C25.1405 49.7778 24.2222 48.8595 24.2222 47.6667V22.3333C24.2222 21.1405 25.1405 20.2222 26.3333 20.2222ZM39 24.4444V39.2222C39 40.4151 38.0817 41.3333 36.8889 41.3333C35.696 41.3333 34.7778 40.4151 34.7778 39.2222C34.7778 38.0294 35.696 37.1111 36.8889 37.1111V32.8889C33.4162 32.8889 30.5556 35.7495 30.5556 39.2222C30.5556 42.6949 33.4162 45.5556 36.8889 45.5556C40.3616 45.5556 43.2222 42.6949 43.2222 39.2222V31.2684C44.523 32.1951 45.8804 32.8889 47.4444 32.8889V28.6667C47.3445 28.6667 45.8879 28.2042 44.8715 27.3184C43.8552 26.4325 43.2222 25.3205 43.2222 24.4444H39Z" fill="#00F2EA"/>
<path d="M27.3333 16C23.8606 16 21 18.8606 21 22.3333V47.6667C21 51.1394 23.8606 54 27.3333 54H52.6667C56.1394 54 59 51.1394 59 47.6667V22.3333C59 18.8606 56.1394 16 52.6667 16H27.3333ZM27.3333 20.2222H52.6667C53.8595 20.2222 54.7778 21.1405 54.7778 22.3333V47.6667C54.7778 48.8595 53.8595 49.7778 52.6667 49.7778H27.3333C26.1405 49.7778 25.2222 48.8595 25.2222 47.6667V22.3333C25.2222 21.1405 26.1405 20.2222 27.3333 20.2222ZM40 24.4444V39.2222C40 40.4151 39.0817 41.3333 37.8889 41.3333C36.696 41.3333 35.7778 40.4151 35.7778 39.2222C35.7778 38.0294 36.696 37.1111 37.8889 37.1111V32.8889C34.4162 32.8889 31.5556 35.7495 31.5556 39.2222C31.5556 42.6949 34.4162 45.5556 37.8889 45.5556C41.3616 45.5556 44.2222 42.6949 44.2222 39.2222V31.2684C45.523 32.1951 46.8804 32.8889 48.4444 32.8889V28.6667C48.3445 28.6667 46.8879 28.2042 45.8715 27.3184C44.8552 26.4325 44.2222 25.3205 44.2222 24.4444H40Z" fill="white"/>
</g>
<rect x="1.5" y="1.5" width="317" height="68" rx="6.5" stroke="#2C3236" stroke-width="3"/>
<defs>
<clipPath id="clip0_341_107">
<rect width="320" height="71" rx="8" fill="white"/>
</clipPath>
</defs>
</svg>
