<svg width="320" height="71" viewBox="0 0 320 71" fill="none" xmlns="http://www.w3.org/2000/svg">
<g clip-path="url(#clip0_428_2)">
<rect width="320" height="71" rx="8" fill="#343D44"/>
<rect x="5.1813" y="-32.1579" width="102.068" height="111.38" transform="rotate(15.2728 5.1813 -32.1579)" fill="#007CC5" stroke="#006098" stroke-width="3"/>
<path d="M156.113 27.655V23.75H140.163V27.655H146.02V43H150.255V27.655H156.113ZM176.007 43L171.305 36.125C172.533 35.6667 173.523 34.9517 174.275 33.98C175.045 32.99 175.43 31.7158 175.43 30.1575V30.1025C175.43 28.1042 174.788 26.5458 173.505 25.4275C172.24 24.3092 170.461 23.75 168.17 23.75H159.37V43H163.605V36.84H166.932L171.057 43H176.007ZM171.14 30.3775C171.14 31.2025 170.855 31.8625 170.287 32.3575C169.737 32.8525 168.94 33.1 167.895 33.1H163.605V27.5725H167.812C168.857 27.5725 169.673 27.8017 170.26 28.26C170.846 28.7183 171.14 29.4058 171.14 30.3225V30.3775ZM193.9 43V39.2325H183.45V35.19H192.525V31.4225H183.45V27.5175H193.763V23.75H179.243V43H193.9ZM211.498 43V39.15H201.9V23.75H197.665V43H211.498ZM228.524 43V39.15H218.927V23.75H214.692V43H228.524ZM251.326 33.375V33.32C251.326 31.945 251.069 30.6617 250.556 29.47C250.061 28.26 249.355 27.215 248.438 26.335C247.54 25.4367 246.467 24.7308 245.221 24.2175C243.974 23.6858 242.608 23.42 241.123 23.42C239.638 23.42 238.263 23.6858 236.998 24.2175C235.752 24.7308 234.67 25.4458 233.753 26.3625C232.855 27.2608 232.149 28.315 231.636 29.525C231.122 30.7167 230.866 32 230.866 33.375V33.43C230.866 34.805 231.113 36.0975 231.608 37.3075C232.122 38.4992 232.827 39.5442 233.726 40.4425C234.642 41.3225 235.724 42.0283 236.971 42.56C238.217 43.0733 239.583 43.33 241.068 43.33C242.553 43.33 243.919 43.0733 245.166 42.56C246.431 42.0283 247.512 41.3133 248.411 40.415C249.327 39.4983 250.042 38.4442 250.556 37.2525C251.069 36.0425 251.326 34.75 251.326 33.375ZM246.898 33.43C246.898 34.255 246.752 35.0342 246.458 35.7675C246.183 36.4825 245.789 37.115 245.276 37.665C244.781 38.215 244.176 38.6458 243.461 38.9575C242.746 39.2692 241.967 39.425 241.123 39.425C240.262 39.425 239.473 39.2692 238.758 38.9575C238.062 38.6275 237.447 38.1875 236.916 37.6375C236.402 37.0875 235.999 36.4458 235.706 35.7125C235.431 34.9792 235.293 34.2 235.293 33.375V33.32C235.293 32.495 235.431 31.725 235.706 31.01C235.999 30.2767 236.393 29.635 236.888 29.085C237.402 28.535 238.007 28.1042 238.703 27.7925C239.418 27.4808 240.207 27.325 241.068 27.325C241.912 27.325 242.691 27.49 243.406 27.82C244.121 28.1317 244.735 28.5625 245.248 29.1125C245.78 29.6625 246.183 30.3042 246.458 31.0375C246.752 31.7708 246.898 32.55 246.898 33.375V33.43Z" fill="white"/>
<rect x="23" y="18" width="15.5556" height="35" rx="4" fill="white"/>
<rect x="42" y="18" width="15.5556" height="23.3333" rx="4" fill="white"/>
</g>
<rect x="1.5" y="1.5" width="317" height="68" rx="6.5" stroke="#2C3236" stroke-width="3"/>
<defs>
<clipPath id="clip0_428_2">
<rect width="320" height="71" rx="8" fill="white"/>
</clipPath>
</defs>
</svg>
