<svg width="320" height="71" viewBox="0 0 320 71" fill="none" xmlns="http://www.w3.org/2000/svg">
<g clip-path="url(#clip0_337_55)">
<rect width="320" height="71" rx="8" fill="#343D44"/>
<rect x="5.1813" y="-32.1579" width="102.068" height="111.38" transform="rotate(15.2728 5.1813 -32.1579)" fill="#00ACEE" stroke="#0484B5" stroke-width="3"/>
<path d="M146.941 27.655V23.75H130.991V27.655H136.849V43H141.084V27.655H146.941ZM177.918 23.75H173.491L169.503 36.785L165.186 23.695H161.556L157.238 36.785L153.251 23.75H148.713L155.286 43.1375H158.971L163.316 30.5425L167.661 43.1375H171.346L177.918 23.75ZM185.483 43V23.75H181.248V43H185.483ZM204.869 27.655V23.75H188.919V27.655H194.776V43H199.011V27.655H204.869ZM222.701 27.655V23.75H206.751V27.655H212.608V43H216.843V27.655H222.701ZM240.615 43V39.2325H230.165V35.19H239.24V31.4225H230.165V27.5175H240.478V23.75H225.958V43H240.615ZM261.018 43L256.316 36.125C257.544 35.6667 258.534 34.9517 259.286 33.98C260.056 32.99 260.441 31.7158 260.441 30.1575V30.1025C260.441 28.1042 259.799 26.5458 258.516 25.4275C257.251 24.3092 255.472 23.75 253.181 23.75H244.381V43H248.616V36.84H251.943L256.068 43H261.018ZM256.151 30.3775C256.151 31.2025 255.866 31.8625 255.298 32.3575C254.748 32.8525 253.951 33.1 252.906 33.1H248.616V27.5725H252.823C253.868 27.5725 254.684 27.8017 255.271 28.26C255.857 28.7183 256.151 29.4058 256.151 30.3225V30.3775Z" fill="white"/>
<path d="M63.1232 16.0756C61.1671 16.9899 57.8383 18.7046 56.1654 19.0323C56.1006 19.0489 56.0478 19.0703 55.9854 19.0869C54.0342 17.1823 51.3606 16.0019 48.4013 16.0019C42.4372 16.0019 37.6011 20.7873 37.6011 26.6889C37.6011 27 37.5747 27.5723 37.6011 27.8763C29.8778 27.8763 24.2377 23.8889 20.016 18.7639C19.452 18.0752 18.852 18.4338 18.7272 18.923C18.4464 20.0297 18.3504 21.8798 18.3504 23.2002C18.3504 26.5274 20.9785 29.7952 25.0705 31.821C24.3169 32.0134 23.4865 32.1511 22.6225 32.1511C21.6049 32.1511 20.4337 31.8875 19.4088 31.3555C19.0296 31.1584 18.2112 31.213 18.4536 32.1725C19.4256 36.0174 23.8609 38.7177 27.8234 39.5037C26.9234 40.0286 25.0033 39.9217 24.1201 39.9217C23.7937 39.9217 22.6585 39.8457 21.9241 39.7555C21.2545 39.6747 20.2248 39.8457 21.0865 41.1377C22.9369 43.9091 27.1226 45.6499 30.725 45.7164C27.4082 48.2908 21.9841 49.2312 16.788 49.2312C15.7368 49.2075 15.7896 50.3926 16.6368 50.8319C20.4697 52.8221 26.7482 54 31.2338 54C49.0661 54 59.2015 40.5511 59.2015 27.874C59.2015 27.6697 59.1967 27.2422 59.1895 26.8124C59.1895 26.7696 59.2015 26.7293 59.2015 26.6865C59.2015 26.6224 59.1823 26.5606 59.1823 26.4965C59.1751 26.1735 59.1679 25.8719 59.1607 25.7152C60.5743 24.7059 62.7392 22.9532 63.8336 21.6114C64.2056 21.1554 63.9056 20.6021 63.3992 20.7754C62.0959 21.2243 59.8423 22.0935 58.4311 22.2597C61.2559 20.4097 62.6528 18.7995 63.8528 17.0113C64.2632 16.4009 63.7496 15.7811 63.1232 16.0756Z" fill="white"/>
</g>
<rect x="1.5" y="1.5" width="317" height="68" rx="6.5" stroke="#2C3236" stroke-width="3"/>
<defs>
<clipPath id="clip0_337_55">
<rect width="320" height="71" rx="8" fill="white"/>
</clipPath>
</defs>
</svg>
