<svg width="320" height="71" viewBox="0 0 320 71" fill="none" xmlns="http://www.w3.org/2000/svg">
<g clip-path="url(#clip0_337_61)">
<rect width="320" height="71" rx="8" fill="#343D44"/>
<rect x="5.1813" y="-32.1579" width="102.068" height="111.38" transform="rotate(15.2728 5.1813 -32.1579)" fill="#9146FF" stroke="#6731B7" stroke-width="3"/>
<path d="M154.907 27.655V23.75H138.957V27.655H144.815V43H149.05V27.655H154.907ZM185.884 23.75H181.457L177.469 36.785L173.152 23.695H169.522L165.204 36.785L161.217 23.75H156.679L163.252 43.1375H166.937L171.282 30.5425L175.627 43.1375H179.312L185.884 23.75ZM193.449 43V23.75H189.214V43H193.449ZM212.834 27.655V23.75H196.884V27.655H202.742V43H206.977V27.655H212.834ZM233.004 39.8925L230.309 37.17C229.557 37.8667 228.796 38.4167 228.026 38.82C227.275 39.2233 226.349 39.425 225.249 39.425C224.424 39.425 223.663 39.2692 222.966 38.9575C222.288 38.6275 221.701 38.1875 221.206 37.6375C220.73 37.0875 220.354 36.4458 220.079 35.7125C219.804 34.9792 219.666 34.2 219.666 33.375V33.32C219.666 32.495 219.804 31.725 220.079 31.01C220.354 30.2767 220.739 29.635 221.234 29.085C221.729 28.535 222.316 28.1042 222.994 27.7925C223.691 27.4808 224.442 27.325 225.249 27.325C226.221 27.325 227.091 27.5175 227.861 27.9025C228.65 28.2875 229.42 28.8192 230.171 29.4975L232.866 26.39C232.426 25.95 231.95 25.5467 231.436 25.18C230.923 24.8133 230.364 24.5017 229.759 24.245C229.154 23.9883 228.476 23.7867 227.724 23.64C226.991 23.4933 226.175 23.42 225.276 23.42C223.791 23.42 222.435 23.6858 221.206 24.2175C219.978 24.7308 218.924 25.4458 218.044 26.3625C217.164 27.2608 216.476 28.315 215.981 29.525C215.486 30.7167 215.239 32 215.239 33.375V33.43C215.239 34.805 215.486 36.0975 215.981 37.3075C216.476 38.5175 217.164 39.5717 218.044 40.47C218.924 41.35 219.969 42.0467 221.179 42.56C222.389 43.0733 223.7 43.33 225.111 43.33C226.046 43.33 226.89 43.2475 227.641 43.0825C228.393 42.9358 229.081 42.7158 229.704 42.4225C230.346 42.1108 230.932 41.7442 231.464 41.3225C231.996 40.9008 232.509 40.4242 233.004 39.8925ZM252.674 43V23.75H248.439V31.3675H240.629V23.75H236.394V43H240.629V35.2725H248.439V43H252.674Z" fill="white"/>
<path d="M28.9715 16C28.3955 16 27.8544 16.2752 27.516 16.7457L22.3445 23.9167C22.1213 24.2261 22 24.5987 22 24.9805V46.7619C22 47.7608 22.8064 48.5714 23.8 48.5714H31V52.1905C31 53.1893 31.8064 54 32.8 54H35.6547C36.1317 54 36.5889 53.8101 36.9273 53.4699L41.2727 49.1016C41.6093 48.7614 42.0683 48.5714 42.5453 48.5714H48.2547C48.7317 48.5714 49.1889 48.3815 49.5273 48.0413L57.4727 40.0539C57.8111 39.7156 58 39.2541 58 38.7746V17.8095C58 16.8107 57.1936 16 56.2 16H28.9715ZM29.2 19.619H54.4V35.9048L49 41.3333H40L34.6 46.7619V41.3333H29.2V19.619ZM40 25.0476C39.0064 25.0476 38.2 25.8583 38.2 26.8571V32.2857C38.2 33.2846 39.0064 34.0952 40 34.0952C40.9936 34.0952 41.8 33.2846 41.8 32.2857V26.8571C41.8 25.8583 40.9936 25.0476 40 25.0476ZM49 25.0476C48.0064 25.0476 47.2 25.8583 47.2 26.8571V32.2857C47.2 33.2846 48.0064 34.0952 49 34.0952C49.9936 34.0952 50.8 33.2846 50.8 32.2857V26.8571C50.8 25.8583 49.9936 25.0476 49 25.0476Z" fill="white"/>
</g>
<rect x="1.5" y="1.5" width="317" height="68" rx="6.5" stroke="#2C3236" stroke-width="3"/>
<defs>
<clipPath id="clip0_337_61">
<rect width="320" height="71" rx="8" fill="white"/>
</clipPath>
</defs>
</svg>
