<svg width="320" height="71" viewBox="0 0 320 71" fill="none" xmlns="http://www.w3.org/2000/svg">
<g clip-path="url(#clip0_338_82)">
<rect width="320" height="71" rx="8" fill="#343D44"/>
<rect x="5.1813" y="-32.1579" width="102.068" height="111.38" transform="rotate(15.2728 5.1813 -32.1579)" fill="#FF0000" stroke="#CE0000" stroke-width="3"/>
<path d="M145.499 23.75H140.686L136.011 31.4775L131.419 23.75H126.469L133.866 35.41V43H138.101V35.3275L145.499 23.75ZM167.741 33.375V33.32C167.741 31.945 167.485 30.6617 166.971 29.47C166.476 28.26 165.77 27.215 164.854 26.335C163.955 25.4367 162.883 24.7308 161.636 24.2175C160.39 23.6858 159.024 23.42 157.539 23.42C156.054 23.42 154.679 23.6858 153.414 24.2175C152.167 24.7308 151.085 25.4458 150.169 26.3625C149.27 27.2608 148.565 28.315 148.051 29.525C147.538 30.7167 147.281 32 147.281 33.375V33.43C147.281 34.805 147.529 36.0975 148.024 37.3075C148.537 38.4992 149.243 39.5442 150.141 40.4425C151.058 41.3225 152.14 42.0283 153.386 42.56C154.633 43.0733 155.999 43.33 157.484 43.33C158.969 43.33 160.335 43.0733 161.581 42.56C162.846 42.0283 163.928 41.3133 164.826 40.415C165.743 39.4983 166.458 38.4442 166.971 37.2525C167.485 36.0425 167.741 34.75 167.741 33.375ZM163.314 33.43C163.314 34.255 163.167 35.0342 162.874 35.7675C162.599 36.4825 162.205 37.115 161.691 37.665C161.196 38.215 160.591 38.6458 159.876 38.9575C159.161 39.2692 158.382 39.425 157.539 39.425C156.677 39.425 155.889 39.2692 155.174 38.9575C154.477 38.6275 153.863 38.1875 153.331 37.6375C152.818 37.0875 152.415 36.4458 152.121 35.7125C151.846 34.9792 151.709 34.2 151.709 33.375V33.32C151.709 32.495 151.846 31.725 152.121 31.01C152.415 30.2767 152.809 29.635 153.304 29.085C153.817 28.535 154.422 28.1042 155.119 27.7925C155.834 27.4808 156.622 27.325 157.484 27.325C158.327 27.325 159.106 27.49 159.821 27.82C160.536 28.1317 161.15 28.5625 161.664 29.1125C162.195 29.6625 162.599 30.3042 162.874 31.0375C163.167 31.7708 163.314 32.55 163.314 33.375V33.43ZM187.97 34.6125V23.75H183.735V34.7775C183.735 36.3175 183.369 37.4725 182.635 38.2425C181.902 39.0125 180.885 39.3975 179.583 39.3975C178.281 39.3975 177.264 39.0033 176.53 38.215C175.797 37.4083 175.43 36.2167 175.43 34.64V23.75H171.195V34.75C171.195 37.5917 171.938 39.7275 173.423 41.1575C174.908 42.5875 176.943 43.3025 179.528 43.3025C180.811 43.3025 181.975 43.1283 183.02 42.78C184.065 42.4133 184.955 41.8725 185.688 41.1575C186.421 40.4242 186.98 39.5167 187.365 38.435C187.769 37.3533 187.97 36.0792 187.97 34.6125ZM206.859 27.655V23.75H190.909V27.655H196.767V43H201.002V27.655H206.859ZM226.589 34.6125V23.75H222.354V34.7775C222.354 36.3175 221.987 37.4725 221.254 38.2425C220.52 39.0125 219.503 39.3975 218.201 39.3975C216.899 39.3975 215.882 39.0033 215.149 38.215C214.415 37.4083 214.049 36.2167 214.049 34.64V23.75H209.814V34.75C209.814 37.5917 210.556 39.7275 212.041 41.1575C213.526 42.5875 215.561 43.3025 218.146 43.3025C219.429 43.3025 220.594 43.1283 221.639 42.78C222.684 42.4133 223.573 41.8725 224.306 41.1575C225.039 40.4242 225.599 39.5167 225.984 38.435C226.387 37.3533 226.589 36.0792 226.589 34.6125ZM247.265 37.72V37.665C247.265 36.3817 246.944 35.3825 246.302 34.6675C245.661 33.9342 244.781 33.3567 243.662 32.935C244.011 32.7517 244.331 32.5317 244.625 32.275C244.936 32.0183 245.202 31.725 245.422 31.395C245.661 31.0467 245.844 30.6617 245.972 30.24C246.119 29.8183 246.192 29.3325 246.192 28.7825V28.7275C246.192 27.2058 245.624 25.9958 244.487 25.0975C243.369 24.1992 241.82 23.75 239.84 23.75H230.902V43H240.06C241.141 43 242.122 42.89 243.002 42.67C243.901 42.45 244.661 42.12 245.285 41.68C245.926 41.24 246.412 40.69 246.742 40.03C247.091 39.37 247.265 38.6 247.265 37.72ZM241.985 29.4975C241.985 30.2125 241.71 30.735 241.16 31.065C240.61 31.3767 239.867 31.5325 238.932 31.5325H235.027V27.4625H239.207C240.106 27.4625 240.793 27.6367 241.27 27.985C241.746 28.315 241.985 28.8008 241.985 29.4425V29.4975ZM243.057 37.1975C243.057 37.9125 242.791 38.4442 242.26 38.7925C241.728 39.1225 240.995 39.2875 240.06 39.2875H235.027V35.0525H239.922C241.022 35.0525 241.82 35.245 242.315 35.63C242.81 35.9967 243.057 36.5008 243.057 37.1425V37.1975ZM265.406 43V39.2325H254.956V35.19H264.031V31.4225H254.956V27.5175H265.268V23.75H250.748V43H265.406Z" fill="white"/>
<path d="M62.9759 21.1917C62.4124 19.1492 60.7513 17.539 58.6443 16.9928C54.8223 16 39.5 16 39.5 16C39.5 16 24.1777 16 20.3557 16.9928C18.2487 17.539 16.5876 19.1492 16.0241 21.1917C15 24.8967 15 35 15 35C15 35 15 45.1032 16.0241 48.8082C16.5876 50.8507 18.2487 52.461 20.3557 53.0073C24.1777 54 39.5 54 39.5 54C39.5 54 54.8223 54 58.6443 53.0073C60.7537 52.461 62.4124 50.8507 62.9759 48.8082C64 45.1032 64 35 64 35C64 35 64 24.8967 62.9759 21.1917ZM34.6 41.1702V28.8298C34.6 27.9154 35.6217 27.3454 36.4375 27.8014L47.4625 33.9716C48.2784 34.4276 48.2784 35.5724 47.4625 36.0284L36.4375 42.1986C35.6217 42.657 34.6 42.0846 34.6 41.1702Z" fill="white"/>
</g>
<rect x="1.5" y="1.5" width="317" height="68" rx="6.5" stroke="#2C3236" stroke-width="3"/>
<defs>
<clipPath id="clip0_338_82">
<rect width="320" height="71" rx="8" fill="white"/>
</clipPath>
</defs>
</svg>
